<svg width="59" height="10" viewBox="0 0 59 10" fill="none" xmlns="http://www.w3.org/2000/svg">
<path d="M2.18404 -2.72128C2.36744 -3.09291 2.89737 -3.09291 3.08077 -2.72128L4.27942 -0.292548C4.35226 -0.144976 4.49304 -0.0426917 4.65589 -0.0190275L7.33616 0.370438C7.74627 0.430031 7.91003 0.934017 7.61327 1.22328L5.67381 3.11379C5.55597 3.22866 5.50219 3.39416 5.53001 3.55636L5.98785 6.22579C6.05791 6.63425 5.62919 6.94573 5.26238 6.75288L2.86508 5.49255C2.71941 5.41597 2.5454 5.41597 2.39973 5.49255L0.00242972 6.75288C-0.364384 6.94573 -0.793101 6.63425 -0.723046 6.2258L-0.265201 3.55636C-0.237382 3.39416 -0.291157 3.22866 -0.409 3.11379L-2.34846 1.22329C-2.64522 0.934018 -2.48146 0.430031 -2.07135 0.370438L0.608915 -0.0190275C0.77177 -0.0426917 0.912553 -0.144976 0.985384 -0.292548L2.18404 -2.72128ZM14.184 -2.72128C14.3674 -3.09291 14.8974 -3.09291 15.0808 -2.72128L16.2794 -0.292548C16.3523 -0.144976 16.493 -0.0426917 16.6559 -0.0190275L19.3362 0.370438C19.7463 0.430031 19.91 0.934017 19.6133 1.22328L17.6738 3.11379C17.556 3.22866 17.5022 3.39416 17.53 3.55636L17.9879 6.22579C18.0579 6.63425 17.6292 6.94573 17.2624 6.75288L14.8651 5.49255C14.7194 5.41597 14.5454 5.41597 14.3997 5.49255L12.0024 6.75288C11.6356 6.94573 11.2069 6.63425 11.277 6.2258L11.7348 3.55636C11.7626 3.39416 11.7088 3.22866 11.591 3.11379L9.65154 1.22329C9.35478 0.934018 9.51854 0.430031 9.92865 0.370438L12.6089 -0.0190275C12.7718 -0.0426917 12.9126 -0.144976 12.9854 -0.292548L14.184 -2.72128ZM26.184 -2.72128C26.3674 -3.09291 26.8974 -3.09291 27.0808 -2.72128L28.2794 -0.292548C28.3523 -0.144976 28.493 -0.0426917 28.6559 -0.0190275L31.3362 0.370438C31.7463 0.430031 31.91 0.934017 31.6133 1.22328L29.6738 3.11379C29.556 3.22866 29.5022 3.39416 29.53 3.55636L29.9879 6.22579C30.0579 6.63425 29.6292 6.94573 29.2624 6.75288L26.8651 5.49255C26.7194 5.41597 26.5454 5.41597 26.3997 5.49255L24.0024 6.75288C23.6356 6.94573 23.2069 6.63425 23.277 6.2258L23.7348 3.55636C23.7626 3.39416 23.7088 3.22866 23.591 3.11379L21.6515 1.22329C21.3548 0.934018 21.5185 0.430031 21.9286 0.370438L24.6089 -0.0190275C24.7718 -0.0426917 24.9126 -0.144976 24.9854 -0.292548L26.184 -2.72128ZM38.184 -2.72128C38.3674 -3.09291 38.8974 -3.09291 39.0808 -2.72128L40.2794 -0.292548C40.3523 -0.144976 40.493 -0.0426917 40.6559 -0.0190275L43.3362 0.370438C43.7463 0.430031 43.91 0.934017 43.6133 1.22328L41.6738 3.11379C41.556 3.22866 41.5022 3.39416 41.53 3.55636L41.9879 6.22579C42.0579 6.63425 41.6292 6.94573 41.2624 6.75288L38.8651 5.49255C38.7194 5.41597 38.5454 5.41597 38.3997 5.49255L36.0024 6.75288C35.6356 6.94573 35.2069 6.63425 35.277 6.2258L35.7348 3.55636C35.7626 3.39416 35.7088 3.22866 35.591 3.11379L33.6515 1.22329C33.3548 0.934018 33.5185 0.430031 33.9286 0.370438L36.6089 -0.0190275C36.7718 -0.0426917 36.9126 -0.144976 36.9854 -0.292548L38.184 -2.72128ZM50.184 -2.72128C50.3674 -3.09291 50.8974 -3.09291 51.0808 -2.72128L52.2794 -0.292548C52.3523 -0.144976 52.493 -0.0426917 52.6559 -0.0190275L55.3362 0.370438C55.7463 0.430031 55.91 0.934017 55.6133 1.22328L53.6738 3.11379C53.556 3.22866 53.5022 3.39416 53.53 3.55636L53.9879 6.22579C54.0579 6.63425 53.6292 6.94573 53.2624 6.75288L50.8651 5.49255C50.7194 5.41597 50.5454 5.41597 50.3997 5.49255L48.0024 6.75288C47.6356 6.94573 47.2069 6.63425 47.277 6.2258L47.7348 3.55636C47.7626 3.39416 47.7088 3.22866 47.591 3.11379L45.6515 1.22329C45.3548 0.934018 45.5185 0.430031 45.9286 0.370438L48.6089 -0.0190275C48.7718 -0.0426917 48.9126 -0.144976 48.9854 -0.292548L50.184 -2.72128Z" fill="#FFC700"/>
<path d="M2.18404 -2.72128C2.36744 -3.09291 2.89737 -3.09291 3.08077 -2.72128L4.27942 -0.292548C4.35226 -0.144976 4.49304 -0.0426917 4.65589 -0.0190275L7.33616 0.370438C7.74627 0.430031 7.91003 0.934017 7.61327 1.22328L5.67381 3.11379C5.55597 3.22866 5.50219 3.39416 5.53001 3.55636L5.98785 6.22579C6.05791 6.63425 5.62919 6.94573 5.26238 6.75288L2.86508 5.49255C2.71941 5.41597 2.5454 5.41597 2.39973 5.49255L0.00242972 6.75288C-0.364384 6.94573 -0.793101 6.63425 -0.723046 6.2258L-0.265201 3.55636C-0.237382 3.39416 -0.291157 3.22866 -0.409 3.11379L-2.34846 1.22329C-2.64522 0.934018 -2.48146 0.430031 -2.07135 0.370438L0.608915 -0.0190275C0.77177 -0.0426917 0.912553 -0.144976 0.985384 -0.292548L2.18404 -2.72128ZM14.184 -2.72128C14.3674 -3.09291 14.8974 -3.09291 15.0808 -2.72128L16.2794 -0.292548C16.3523 -0.144976 16.493 -0.0426917 16.6559 -0.0190275L19.3362 0.370438C19.7463 0.430031 19.91 0.934017 19.6133 1.22328L17.6738 3.11379C17.556 3.22866 17.5022 3.39416 17.53 3.55636L17.9879 6.22579C18.0579 6.63425 17.6292 6.94573 17.2624 6.75288L14.8651 5.49255C14.7194 5.41597 14.5454 5.41597 14.3997 5.49255L12.0024 6.75288C11.6356 6.94573 11.2069 6.63425 11.277 6.2258L11.7348 3.55636C11.7626 3.39416 11.7088 3.22866 11.591 3.11379L9.65154 1.22329C9.35478 0.934018 9.51854 0.430031 9.92865 0.370438L12.6089 -0.0190275C12.7718 -0.0426917 12.9126 -0.144976 12.9854 -0.292548L14.184 -2.72128ZM26.184 -2.72128C26.3674 -3.09291 26.8974 -3.09291 27.0808 -2.72128L28.2794 -0.292548C28.3523 -0.144976 28.493 -0.0426917 28.6559 -0.0190275L31.3362 0.370438C31.7463 0.430031 31.91 0.934017 31.6133 1.22328L29.6738 3.11379C29.556 3.22866 29.5022 3.39416 29.53 3.55636L29.9879 6.22579C30.0579 6.63425 29.6292 6.94573 29.2624 6.75288L26.8651 5.49255C26.7194 5.41597 26.5454 5.41597 26.3997 5.49255L24.0024 6.75288C23.6356 6.94573 23.2069 6.63425 23.277 6.2258L23.7348 3.55636C23.7626 3.39416 23.7088 3.22866 23.591 3.11379L21.6515 1.22329C21.3548 0.934018 21.5185 0.430031 21.9286 0.370438L24.6089 -0.0190275C24.7718 -0.0426917 24.9126 -0.144976 24.9854 -0.292548L26.184 -2.72128ZM38.184 -2.72128C38.3674 -3.09291 38.8974 -3.09291 39.0808 -2.72128L40.2794 -0.292548C40.3523 -0.144976 40.493 -0.0426917 40.6559 -0.0190275L43.3362 0.370438C43.7463 0.430031 43.91 0.934017 43.6133 1.22328L41.6738 3.11379C41.556 3.22866 41.5022 3.39416 41.53 3.55636L41.9879 6.22579C42.0579 6.63425 41.6292 6.94573 41.2624 6.75288L38.8651 5.49255C38.7194 5.41597 38.5454 5.41597 38.3997 5.49255L36.0024 6.75288C35.6356 6.94573 35.2069 6.63425 35.277 6.2258L35.7348 3.55636C35.7626 3.39416 35.7088 3.22866 35.591 3.11379L33.6515 1.22329C33.3548 0.934018 33.5185 0.430031 33.9286 0.370438L36.6089 -0.0190275C36.7718 -0.0426917 36.9126 -0.144976 36.9854 -0.292548L38.184 -2.72128ZM50.184 -2.72128C50.3674 -3.09291 50.8974 -3.09291 51.0808 -2.72128L52.2794 -0.292548C52.3523 -0.144976 52.493 -0.0426917 52.6559 -0.0190275L55.3362 0.370438C55.7463 0.430031 55.91 0.934017 55.6133 1.22328L53.6738 3.11379C53.556 3.22866 53.5022 3.39416 53.53 3.55636L53.9879 6.22579C54.0579 6.63425 53.6292 6.94573 53.2624 6.75288L50.8651 5.49255C50.7194 5.41597 50.5454 5.41597 50.3997 5.49255L48.0024 6.75288C47.6356 6.94573 47.2069 6.63425 47.277 6.2258L47.7348 3.55636C47.7626 3.39416 47.7088 3.22866 47.591 3.11379L45.6515 1.22329C45.3548 0.934018 45.5185 0.430031 45.9286 0.370438L48.6089 -0.0190275C48.7718 -0.0426917 48.9126 -0.144976 48.9854 -0.292548L50.184 -2.72128Z" fill="#FFC700"/>
<path d="M2.18404 -2.72128C2.36744 -3.09291 2.89737 -3.09291 3.08077 -2.72128L4.27942 -0.292548C4.35226 -0.144976 4.49304 -0.0426917 4.65589 -0.0190275L7.33616 0.370438C7.74627 0.430031 7.91003 0.934017 7.61327 1.22328L5.67381 3.11379C5.55597 3.22866 5.50219 3.39416 5.53001 3.55636L5.98785 6.22579C6.05791 6.63425 5.62919 6.94573 5.26238 6.75288L2.86508 5.49255C2.71941 5.41597 2.5454 5.41597 2.39973 5.49255L0.00242972 6.75288C-0.364384 6.94573 -0.793101 6.63425 -0.723046 6.2258L-0.265201 3.55636C-0.237382 3.39416 -0.291157 3.22866 -0.409 3.11379L-2.34846 1.22329C-2.64522 0.934018 -2.48146 0.430031 -2.07135 0.370438L0.608915 -0.0190275C0.77177 -0.0426917 0.912553 -0.144976 0.985384 -0.292548L2.18404 -2.72128ZM14.184 -2.72128C14.3674 -3.09291 14.8974 -3.09291 15.0808 -2.72128L16.2794 -0.292548C16.3523 -0.144976 16.493 -0.0426917 16.6559 -0.0190275L19.3362 0.370438C19.7463 0.430031 19.91 0.934017 19.6133 1.22328L17.6738 3.11379C17.556 3.22866 17.5022 3.39416 17.53 3.55636L17.9879 6.22579C18.0579 6.63425 17.6292 6.94573 17.2624 6.75288L14.8651 5.49255C14.7194 5.41597 14.5454 5.41597 14.3997 5.49255L12.0024 6.75288C11.6356 6.94573 11.2069 6.63425 11.277 6.2258L11.7348 3.55636C11.7626 3.39416 11.7088 3.22866 11.591 3.11379L9.65154 1.22329C9.35478 0.934018 9.51854 0.430031 9.92865 0.370438L12.6089 -0.0190275C12.7718 -0.0426917 12.9126 -0.144976 12.9854 -0.292548L14.184 -2.72128ZM26.184 -2.72128C26.3674 -3.09291 26.8974 -3.09291 27.0808 -2.72128L28.2794 -0.292548C28.3523 -0.144976 28.493 -0.0426917 28.6559 -0.0190275L31.3362 0.370438C31.7463 0.430031 31.91 0.934017 31.6133 1.22328L29.6738 3.11379C29.556 3.22866 29.5022 3.39416 29.53 3.55636L29.9879 6.22579C30.0579 6.63425 29.6292 6.94573 29.2624 6.75288L26.8651 5.49255C26.7194 5.41597 26.5454 5.41597 26.3997 5.49255L24.0024 6.75288C23.6356 6.94573 23.2069 6.63425 23.277 6.2258L23.7348 3.55636C23.7626 3.39416 23.7088 3.22866 23.591 3.11379L21.6515 1.22329C21.3548 0.934018 21.5185 0.430031 21.9286 0.370438L24.6089 -0.0190275C24.7718 -0.0426917 24.9126 -0.144976 24.9854 -0.292548L26.184 -2.72128ZM38.184 -2.72128C38.3674 -3.09291 38.8974 -3.09291 39.0808 -2.72128L40.2794 -0.292548C40.3523 -0.144976 40.493 -0.0426917 40.6559 -0.0190275L43.3362 0.370438C43.7463 0.430031 43.91 0.934017 43.6133 1.22328L41.6738 3.11379C41.556 3.22866 41.5022 3.39416 41.53 3.55636L41.9879 6.22579C42.0579 6.63425 41.6292 6.94573 41.2624 6.75288L38.8651 5.49255C38.7194 5.41597 38.5454 5.41597 38.3997 5.49255L36.0024 6.75288C35.6356 6.94573 35.2069 6.63425 35.277 6.2258L35.7348 3.55636C35.7626 3.39416 35.7088 3.22866 35.591 3.11379L33.6515 1.22329C33.3548 0.934018 33.5185 0.430031 33.9286 0.370438L36.6089 -0.0190275C36.7718 -0.0426917 36.9126 -0.144976 36.9854 -0.292548L38.184 -2.72128ZM50.184 -2.72128C50.3674 -3.09291 50.8974 -3.09291 51.0808 -2.72128L52.2794 -0.292548C52.3523 -0.144976 52.493 -0.0426917 52.6559 -0.0190275L55.3362 0.370438C55.7463 0.430031 55.91 0.934017 55.6133 1.22328L53.6738 3.11379C53.556 3.22866 53.5022 3.39416 53.53 3.55636L53.9879 6.22579C54.0579 6.63425 53.6292 6.94573 53.2624 6.75288L50.8651 5.49255C50.7194 5.41597 50.5454 5.41597 50.3997 5.49255L48.0024 6.75288C47.6356 6.94573 47.2069 6.63425 47.277 6.2258L47.7348 3.55636C47.7626 3.39416 47.7088 3.22866 47.591 3.11379L45.6515 1.22329C45.3548 0.934018 45.5185 0.430031 45.9286 0.370438L48.6089 -0.0190275C48.7718 -0.0426917 48.9126 -0.144976 48.9854 -0.292548L50.184 -2.72128Z" fill="#FFC700"/>
<path d="M2.18404 -2.72128C2.36744 -3.09291 2.89737 -3.09291 3.08077 -2.72128L4.27942 -0.292548C4.35226 -0.144976 4.49304 -0.0426917 4.65589 -0.0190275L7.33616 0.370438C7.74627 0.430031 7.91003 0.934017 7.61327 1.22328L5.67381 3.11379C5.55597 3.22866 5.50219 3.39416 5.53001 3.55636L5.98785 6.22579C6.05791 6.63425 5.62919 6.94573 5.26238 6.75288L2.86508 5.49255C2.71941 5.41597 2.5454 5.41597 2.39973 5.49255L0.00242972 6.75288C-0.364384 6.94573 -0.793101 6.63425 -0.723046 6.2258L-0.265201 3.55636C-0.237382 3.39416 -0.291157 3.22866 -0.409 3.11379L-2.34846 1.22329C-2.64522 0.934018 -2.48146 0.430031 -2.07135 0.370438L0.608915 -0.0190275C0.77177 -0.0426917 0.912553 -0.144976 0.985384 -0.292548L2.18404 -2.72128ZM14.184 -2.72128C14.3674 -3.09291 14.8974 -3.09291 15.0808 -2.72128L16.2794 -0.292548C16.3523 -0.144976 16.493 -0.0426917 16.6559 -0.0190275L19.3362 0.370438C19.7463 0.430031 19.91 0.934017 19.6133 1.22328L17.6738 3.11379C17.556 3.22866 17.5022 3.39416 17.53 3.55636L17.9879 6.22579C18.0579 6.63425 17.6292 6.94573 17.2624 6.75288L14.8651 5.49255C14.7194 5.41597 14.5454 5.41597 14.3997 5.49255L12.0024 6.75288C11.6356 6.94573 11.2069 6.63425 11.277 6.2258L11.7348 3.55636C11.7626 3.39416 11.7088 3.22866 11.591 3.11379L9.65154 1.22329C9.35478 0.934018 9.51854 0.430031 9.92865 0.370438L12.6089 -0.0190275C12.7718 -0.0426917 12.9126 -0.144976 12.9854 -0.292548L14.184 -2.72128ZM26.184 -2.72128C26.3674 -3.09291 26.8974 -3.09291 27.0808 -2.72128L28.2794 -0.292548C28.3523 -0.144976 28.493 -0.0426917 28.6559 -0.0190275L31.3362 0.370438C31.7463 0.430031 31.91 0.934017 31.6133 1.22328L29.6738 3.11379C29.556 3.22866 29.5022 3.39416 29.53 3.55636L29.9879 6.22579C30.0579 6.63425 29.6292 6.94573 29.2624 6.75288L26.8651 5.49255C26.7194 5.41597 26.5454 5.41597 26.3997 5.49255L24.0024 6.75288C23.6356 6.94573 23.2069 6.63425 23.277 6.2258L23.7348 3.55636C23.7626 3.39416 23.7088 3.22866 23.591 3.11379L21.6515 1.22329C21.3548 0.934018 21.5185 0.430031 21.9286 0.370438L24.6089 -0.0190275C24.7718 -0.0426917 24.9126 -0.144976 24.9854 -0.292548L26.184 -2.72128ZM38.184 -2.72128C38.3674 -3.09291 38.8974 -3.09291 39.0808 -2.72128L40.2794 -0.292548C40.3523 -0.144976 40.493 -0.0426917 40.6559 -0.0190275L43.3362 0.370438C43.7463 0.430031 43.91 0.934017 43.6133 1.22328L41.6738 3.11379C41.556 3.22866 41.5022 3.39416 41.53 3.55636L41.9879 6.22579C42.0579 6.63425 41.6292 6.94573 41.2624 6.75288L38.8651 5.49255C38.7194 5.41597 38.5454 5.41597 38.3997 5.49255L36.0024 6.75288C35.6356 6.94573 35.2069 6.63425 35.277 6.2258L35.7348 3.55636C35.7626 3.39416 35.7088 3.22866 35.591 3.11379L33.6515 1.22329C33.3548 0.934018 33.5185 0.430031 33.9286 0.370438L36.6089 -0.0190275C36.7718 -0.0426917 36.9126 -0.144976 36.9854 -0.292548L38.184 -2.72128ZM50.184 -2.72128C50.3674 -3.09291 50.8974 -3.09291 51.0808 -2.72128L52.2794 -0.292548C52.3523 -0.144976 52.493 -0.0426917 52.6559 -0.0190275L55.3362 0.370438C55.7463 0.430031 55.91 0.934017 55.6133 1.22328L53.6738 3.11379C53.556 3.22866 53.5022 3.39416 53.53 3.55636L53.9879 6.22579C54.0579 6.63425 53.6292 6.94573 53.2624 6.75288L50.8651 5.49255C50.7194 5.41597 50.5454 5.41597 50.3997 5.49255L48.0024 6.75288C47.6356 6.94573 47.2069 6.63425 47.277 6.2258L47.7348 3.55636C47.7626 3.39416 47.7088 3.22866 47.591 3.11379L45.6515 1.22329C45.3548 0.934018 45.5185 0.430031 45.9286 0.370438L48.6089 -0.0190275C48.7718 -0.0426917 48.9126 -0.144976 48.9854 -0.292548L50.184 -2.72128Z" fill="#FFC700"/>
<path d="M2.18404 -2.72128C2.36744 -3.09291 2.89737 -3.09291 3.08077 -2.72128L4.27942 -0.292548C4.35226 -0.144976 4.49304 -0.0426917 4.65589 -0.0190275L7.33616 0.370438C7.74627 0.430031 7.91003 0.934017 7.61327 1.22328L5.67381 3.11379C5.55597 3.22866 5.50219 3.39416 5.53001 3.55636L5.98785 6.22579C6.05791 6.63425 5.62919 6.94573 5.26238 6.75288L2.86508 5.49255C2.71941 5.41597 2.5454 5.41597 2.39973 5.49255L0.00242972 6.75288C-0.364384 6.94573 -0.793101 6.63425 -0.723046 6.2258L-0.265201 3.55636C-0.237382 3.39416 -0.291157 3.22866 -0.409 3.11379L-2.34846 1.22329C-2.64522 0.934018 -2.48146 0.430031 -2.07135 0.370438L0.608915 -0.0190275C0.77177 -0.0426917 0.912553 -0.144976 0.985384 -0.292548L2.18404 -2.72128ZM14.184 -2.72128C14.3674 -3.09291 14.8974 -3.09291 15.0808 -2.72128L16.2794 -0.292548C16.3523 -0.144976 16.493 -0.0426917 16.6559 -0.0190275L19.3362 0.370438C19.7463 0.430031 19.91 0.934017 19.6133 1.22328L17.6738 3.11379C17.556 3.22866 17.5022 3.39416 17.53 3.55636L17.9879 6.22579C18.0579 6.63425 17.6292 6.94573 17.2624 6.75288L14.8651 5.49255C14.7194 5.41597 14.5454 5.41597 14.3997 5.49255L12.0024 6.75288C11.6356 6.94573 11.2069 6.63425 11.277 6.2258L11.7348 3.55636C11.7626 3.39416 11.7088 3.22866 11.591 3.11379L9.65154 1.22329C9.35478 0.934018 9.51854 0.430031 9.92865 0.370438L12.6089 -0.0190275C12.7718 -0.0426917 12.9126 -0.144976 12.9854 -0.292548L14.184 -2.72128ZM26.184 -2.72128C26.3674 -3.09291 26.8974 -3.09291 27.0808 -2.72128L28.2794 -0.292548C28.3523 -0.144976 28.493 -0.0426917 28.6559 -0.0190275L31.3362 0.370438C31.7463 0.430031 31.91 0.934017 31.6133 1.22328L29.6738 3.11379C29.556 3.22866 29.5022 3.39416 29.53 3.55636L29.9879 6.22579C30.0579 6.63425 29.6292 6.94573 29.2624 6.75288L26.8651 5.49255C26.7194 5.41597 26.5454 5.41597 26.3997 5.49255L24.0024 6.75288C23.6356 6.94573 23.2069 6.63425 23.277 6.2258L23.7348 3.55636C23.7626 3.39416 23.7088 3.22866 23.591 3.11379L21.6515 1.22329C21.3548 0.934018 21.5185 0.430031 21.9286 0.370438L24.6089 -0.0190275C24.7718 -0.0426917 24.9126 -0.144976 24.9854 -0.292548L26.184 -2.72128ZM38.184 -2.72128C38.3674 -3.09291 38.8974 -3.09291 39.0808 -2.72128L40.2794 -0.292548C40.3523 -0.144976 40.493 -0.0426917 40.6559 -0.0190275L43.3362 0.370438C43.7463 0.430031 43.91 0.934017 43.6133 1.22328L41.6738 3.11379C41.556 3.22866 41.5022 3.39416 41.53 3.55636L41.9879 6.22579C42.0579 6.63425 41.6292 6.94573 41.2624 6.75288L38.8651 5.49255C38.7194 5.41597 38.5454 5.41597 38.3997 5.49255L36.0024 6.75288C35.6356 6.94573 35.2069 6.63425 35.277 6.2258L35.7348 3.55636C35.7626 3.39416 35.7088 3.22866 35.591 3.11379L33.6515 1.22329C33.3548 0.934018 33.5185 0.430031 33.9286 0.370438L36.6089 -0.0190275C36.7718 -0.0426917 36.9126 -0.144976 36.9854 -0.292548L38.184 -2.72128ZM50.184 -2.72128C50.3674 -3.09291 50.8974 -3.09291 51.0808 -2.72128L52.2794 -0.292548C52.3523 -0.144976 52.493 -0.0426917 52.6559 -0.0190275L55.3362 0.370438C55.7463 0.430031 55.91 0.934017 55.6133 1.22328L53.6738 3.11379C53.556 3.22866 53.5022 3.39416 53.53 3.55636L53.9879 6.22579C54.0579 6.63425 53.6292 6.94573 53.2624 6.75288L50.8651 5.49255C50.7194 5.41597 50.5454 5.41597 50.3997 5.49255L48.0024 6.75288C47.6356 6.94573 47.2069 6.63425 47.277 6.2258L47.7348 3.55636C47.7626 3.39416 47.7088 3.22866 47.591 3.11379L45.6515 1.22329C45.3548 0.934018 45.5185 0.430031 45.9286 0.370438L48.6089 -0.0190275C48.7718 -0.0426917 48.9126 -0.144976 48.9854 -0.292548L50.184 -2.72128Z" fill="#FFC700"/>
</svg>
