<svg width="23" height="22" viewBox="0 0 23 22" fill="none" xmlns="http://www.w3.org/2000/svg">
<path fill-rule="evenodd" clip-rule="evenodd" d="M15.875 8C15.875 9.06087 15.4536 10.0783 14.7034 10.8284C13.9533 11.5786 12.9359 12 11.875 12C10.8141 12 9.79672 11.5786 9.04657 10.8284C8.29643 10.0783 7.875 9.06087 7.875 8C7.875 6.93913 8.29643 5.92172 9.04657 5.17157C9.79672 4.42143 10.8141 4 11.875 4C12.9359 4 13.9533 4.42143 14.7034 5.17157C15.4536 5.92172 15.875 6.93913 15.875 8ZM13.875 8C13.875 8.53043 13.6643 9.03914 13.2892 9.41421C12.9141 9.78929 12.4054 10 11.875 10C11.3446 10 10.8359 9.78929 10.4608 9.41421C10.0857 9.03914 9.875 8.53043 9.875 8C9.875 7.46957 10.0857 6.96086 10.4608 6.58579C10.8359 6.21071 11.3446 6 11.875 6C12.4054 6 12.9141 6.21071 13.2892 6.58579C13.6643 6.96086 13.875 7.46957 13.875 8Z" fill="#B3B3B3"/>
<path fill-rule="evenodd" clip-rule="evenodd" d="M11.875 0C5.8 0 0.875 4.925 0.875 11C0.875 17.075 5.8 22 11.875 22C17.95 22 22.875 17.075 22.875 11C22.875 4.925 17.95 0 11.875 0ZM2.875 11C2.875 13.09 3.588 15.014 4.783 16.542C5.62244 15.4401 6.70515 14.5471 7.94664 13.9327C9.18812 13.3183 10.5548 12.9991 11.94 13C13.3074 12.9984 14.6571 13.3091 15.8861 13.9084C17.1152 14.5077 18.1912 15.3797 19.032 16.458C19.8984 15.3216 20.4818 13.9952 20.7339 12.5886C20.986 11.182 20.8994 9.73553 20.4815 8.36898C20.0636 7.00243 19.3262 5.75505 18.3305 4.73004C17.3348 3.70503 16.1093 2.93186 14.7554 2.47451C13.4015 2.01716 11.9582 1.88877 10.5449 2.09997C9.13152 2.31117 7.78879 2.85589 6.62777 3.68905C5.46675 4.52222 4.52081 5.61987 3.86823 6.8912C3.21565 8.16252 2.87518 9.57097 2.875 11ZM11.875 20C9.80891 20.0033 7.80514 19.2926 6.203 17.988C6.84781 17.0646 7.70619 16.3107 8.70508 15.7905C9.70396 15.2702 10.8138 14.999 11.94 15C13.0522 14.999 14.1485 15.2635 15.138 15.7713C16.1274 16.2792 16.9814 17.0158 17.629 17.92C16.0145 19.267 13.9776 20.0033 11.875 20Z" fill="#B3B3B3"/>
</svg>
