<svg width="59" height="11" viewBox="0 0 59 11" fill="none" xmlns="http://www.w3.org/2000/svg">
<path d="M5.41939 0.873017C5.60279 0.501394 6.13272 0.501393 6.31612 0.873016L7.51478 3.30175C7.58761 3.44932 7.72839 3.55161 7.89125 3.57527L10.5715 3.96474C10.9816 4.02433 11.1454 4.52832 10.8486 4.81758L8.90916 6.70809C8.79132 6.82296 8.73754 6.98846 8.76536 7.15066L9.22321 9.82009C9.29326 10.2285 8.86454 10.54 8.49773 10.3472L6.10043 9.08685C5.95476 9.01027 5.78075 9.01027 5.63509 9.08685L3.23778 10.3472C2.87097 10.54 2.44225 10.2285 2.51231 9.8201L2.97015 7.15066C2.99797 6.98846 2.94419 6.82296 2.82635 6.70809L0.886892 4.81758C0.590134 4.52832 0.753888 4.02433 1.164 3.96474L3.84427 3.57527C4.00712 3.55161 4.1479 3.44932 4.22074 3.30175L5.41939 0.873017ZM17.4194 0.873017C17.6028 0.501394 18.1327 0.501393 18.3161 0.873016L19.5148 3.30175C19.5876 3.44932 19.7284 3.55161 19.8912 3.57527L22.5715 3.96474C22.9816 4.02433 23.1454 4.52832 22.8486 4.81758L20.9092 6.70809C20.7913 6.82296 20.7375 6.98846 20.7654 7.15066L21.2232 9.82009C21.2933 10.2285 20.8645 10.54 20.4977 10.3472L18.1004 9.08685C17.9548 9.01027 17.7807 9.01027 17.6351 9.08685L15.2378 10.3472C14.871 10.54 14.4423 10.2285 14.5123 9.8201L14.9701 7.15066C14.998 6.98846 14.9442 6.82296 14.8264 6.70809L12.8869 4.81758C12.5901 4.52832 12.7539 4.02433 13.164 3.96474L15.8443 3.57527C16.0071 3.55161 16.1479 3.44932 16.2207 3.30175L17.4194 0.873017ZM29.4194 0.873017C29.6028 0.501394 30.1327 0.501393 30.3161 0.873016L31.5148 3.30175C31.5876 3.44932 31.7284 3.55161 31.8912 3.57527L34.5715 3.96474C34.9816 4.02433 35.1454 4.52832 34.8486 4.81758L32.9092 6.70809C32.7913 6.82296 32.7375 6.98846 32.7654 7.15066L33.2232 9.82009C33.2933 10.2285 32.8645 10.54 32.4977 10.3472L30.1004 9.08685C29.9548 9.01027 29.7807 9.01027 29.6351 9.08685L27.2378 10.3472C26.871 10.54 26.4423 10.2285 26.5123 9.8201L26.9701 7.15066C26.998 6.98846 26.9442 6.82296 26.8264 6.70809L24.8869 4.81758C24.5901 4.52832 24.7539 4.02433 25.164 3.96474L27.8443 3.57527C28.0071 3.55161 28.1479 3.44932 28.2207 3.30175L29.4194 0.873017ZM41.4194 0.873017C41.6028 0.501394 42.1327 0.501393 42.3161 0.873016L43.5148 3.30175C43.5876 3.44932 43.7284 3.55161 43.8912 3.57527L46.5715 3.96474C46.9816 4.02433 47.1454 4.52832 46.8486 4.81758L44.9092 6.70809C44.7913 6.82296 44.7375 6.98846 44.7654 7.15066L45.2232 9.82009C45.2933 10.2285 44.8645 10.54 44.4977 10.3472L42.1004 9.08685C41.9548 9.01027 41.7807 9.01027 41.6351 9.08685L39.2378 10.3472C38.871 10.54 38.4422 10.2285 38.5123 9.8201L38.9701 7.15066C38.998 6.98846 38.9442 6.82296 38.8264 6.70809L36.8869 4.81758C36.5901 4.52832 36.7539 4.02433 37.164 3.96474L39.8443 3.57527C40.0071 3.55161 40.1479 3.44932 40.2207 3.30175L41.4194 0.873017ZM53.4194 0.873017C53.6028 0.501394 54.1327 0.501393 54.3161 0.873016L55.5148 3.30175C55.5876 3.44932 55.7284 3.55161 55.8912 3.57527L58.5715 3.96474C58.9816 4.02433 59.1454 4.52832 58.8486 4.81758L56.9092 6.70809C56.7913 6.82296 56.7375 6.98846 56.7654 7.15066L57.2232 9.82009C57.2933 10.2285 56.8645 10.54 56.4977 10.3472L54.1004 9.08685C53.9548 9.01027 53.7807 9.01027 53.6351 9.08685L51.2378 10.3472C50.871 10.54 50.4422 10.2285 50.5123 9.8201L50.9701 7.15066C50.998 6.98846 50.9442 6.82296 50.8264 6.70809L48.8869 4.81758C48.5901 4.52832 48.7539 4.02433 49.164 3.96474L51.8443 3.57527C52.0071 3.55161 52.1479 3.44932 52.2207 3.30175L53.4194 0.873017Z" fill="#FFC700"/>
<path d="M5.41939 0.873017C5.60279 0.501394 6.13272 0.501393 6.31612 0.873016L7.51478 3.30175C7.58761 3.44932 7.72839 3.55161 7.89125 3.57527L10.5715 3.96474C10.9816 4.02433 11.1454 4.52832 10.8486 4.81758L8.90916 6.70809C8.79132 6.82296 8.73754 6.98846 8.76536 7.15066L9.22321 9.82009C9.29326 10.2285 8.86454 10.54 8.49773 10.3472L6.10043 9.08685C5.95476 9.01027 5.78075 9.01027 5.63509 9.08685L3.23778 10.3472C2.87097 10.54 2.44225 10.2285 2.51231 9.8201L2.97015 7.15066C2.99797 6.98846 2.94419 6.82296 2.82635 6.70809L0.886892 4.81758C0.590134 4.52832 0.753888 4.02433 1.164 3.96474L3.84427 3.57527C4.00712 3.55161 4.1479 3.44932 4.22074 3.30175L5.41939 0.873017ZM17.4194 0.873017C17.6028 0.501394 18.1327 0.501393 18.3161 0.873016L19.5148 3.30175C19.5876 3.44932 19.7284 3.55161 19.8912 3.57527L22.5715 3.96474C22.9816 4.02433 23.1454 4.52832 22.8486 4.81758L20.9092 6.70809C20.7913 6.82296 20.7375 6.98846 20.7654 7.15066L21.2232 9.82009C21.2933 10.2285 20.8645 10.54 20.4977 10.3472L18.1004 9.08685C17.9548 9.01027 17.7807 9.01027 17.6351 9.08685L15.2378 10.3472C14.871 10.54 14.4423 10.2285 14.5123 9.8201L14.9701 7.15066C14.998 6.98846 14.9442 6.82296 14.8264 6.70809L12.8869 4.81758C12.5901 4.52832 12.7539 4.02433 13.164 3.96474L15.8443 3.57527C16.0071 3.55161 16.1479 3.44932 16.2207 3.30175L17.4194 0.873017ZM29.4194 0.873017C29.6028 0.501394 30.1327 0.501393 30.3161 0.873016L31.5148 3.30175C31.5876 3.44932 31.7284 3.55161 31.8912 3.57527L34.5715 3.96474C34.9816 4.02433 35.1454 4.52832 34.8486 4.81758L32.9092 6.70809C32.7913 6.82296 32.7375 6.98846 32.7654 7.15066L33.2232 9.82009C33.2933 10.2285 32.8645 10.54 32.4977 10.3472L30.1004 9.08685C29.9548 9.01027 29.7807 9.01027 29.6351 9.08685L27.2378 10.3472C26.871 10.54 26.4423 10.2285 26.5123 9.8201L26.9701 7.15066C26.998 6.98846 26.9442 6.82296 26.8264 6.70809L24.8869 4.81758C24.5901 4.52832 24.7539 4.02433 25.164 3.96474L27.8443 3.57527C28.0071 3.55161 28.1479 3.44932 28.2207 3.30175L29.4194 0.873017ZM41.4194 0.873017C41.6028 0.501394 42.1327 0.501393 42.3161 0.873016L43.5148 3.30175C43.5876 3.44932 43.7284 3.55161 43.8912 3.57527L46.5715 3.96474C46.9816 4.02433 47.1454 4.52832 46.8486 4.81758L44.9092 6.70809C44.7913 6.82296 44.7375 6.98846 44.7654 7.15066L45.2232 9.82009C45.2933 10.2285 44.8645 10.54 44.4977 10.3472L42.1004 9.08685C41.9548 9.01027 41.7807 9.01027 41.6351 9.08685L39.2378 10.3472C38.871 10.54 38.4422 10.2285 38.5123 9.8201L38.9701 7.15066C38.998 6.98846 38.9442 6.82296 38.8264 6.70809L36.8869 4.81758C36.5901 4.52832 36.7539 4.02433 37.164 3.96474L39.8443 3.57527C40.0071 3.55161 40.1479 3.44932 40.2207 3.30175L41.4194 0.873017ZM53.4194 0.873017C53.6028 0.501394 54.1327 0.501393 54.3161 0.873016L55.5148 3.30175C55.5876 3.44932 55.7284 3.55161 55.8912 3.57527L58.5715 3.96474C58.9816 4.02433 59.1454 4.52832 58.8486 4.81758L56.9092 6.70809C56.7913 6.82296 56.7375 6.98846 56.7654 7.15066L57.2232 9.82009C57.2933 10.2285 56.8645 10.54 56.4977 10.3472L54.1004 9.08685C53.9548 9.01027 53.7807 9.01027 53.6351 9.08685L51.2378 10.3472C50.871 10.54 50.4422 10.2285 50.5123 9.8201L50.9701 7.15066C50.998 6.98846 50.9442 6.82296 50.8264 6.70809L48.8869 4.81758C48.5901 4.52832 48.7539 4.02433 49.164 3.96474L51.8443 3.57527C52.0071 3.55161 52.1479 3.44932 52.2207 3.30175L53.4194 0.873017Z" fill="#FFC700"/>
<path d="M5.41939 0.873017C5.60279 0.501394 6.13272 0.501393 6.31612 0.873016L7.51478 3.30175C7.58761 3.44932 7.72839 3.55161 7.89125 3.57527L10.5715 3.96474C10.9816 4.02433 11.1454 4.52832 10.8486 4.81758L8.90916 6.70809C8.79132 6.82296 8.73754 6.98846 8.76536 7.15066L9.22321 9.82009C9.29326 10.2285 8.86454 10.54 8.49773 10.3472L6.10043 9.08685C5.95476 9.01027 5.78075 9.01027 5.63509 9.08685L3.23778 10.3472C2.87097 10.54 2.44225 10.2285 2.51231 9.8201L2.97015 7.15066C2.99797 6.98846 2.94419 6.82296 2.82635 6.70809L0.886892 4.81758C0.590134 4.52832 0.753888 4.02433 1.164 3.96474L3.84427 3.57527C4.00712 3.55161 4.1479 3.44932 4.22074 3.30175L5.41939 0.873017ZM17.4194 0.873017C17.6028 0.501394 18.1327 0.501393 18.3161 0.873016L19.5148 3.30175C19.5876 3.44932 19.7284 3.55161 19.8912 3.57527L22.5715 3.96474C22.9816 4.02433 23.1454 4.52832 22.8486 4.81758L20.9092 6.70809C20.7913 6.82296 20.7375 6.98846 20.7654 7.15066L21.2232 9.82009C21.2933 10.2285 20.8645 10.54 20.4977 10.3472L18.1004 9.08685C17.9548 9.01027 17.7807 9.01027 17.6351 9.08685L15.2378 10.3472C14.871 10.54 14.4423 10.2285 14.5123 9.8201L14.9701 7.15066C14.998 6.98846 14.9442 6.82296 14.8264 6.70809L12.8869 4.81758C12.5901 4.52832 12.7539 4.02433 13.164 3.96474L15.8443 3.57527C16.0071 3.55161 16.1479 3.44932 16.2207 3.30175L17.4194 0.873017ZM29.4194 0.873017C29.6028 0.501394 30.1327 0.501393 30.3161 0.873016L31.5148 3.30175C31.5876 3.44932 31.7284 3.55161 31.8912 3.57527L34.5715 3.96474C34.9816 4.02433 35.1454 4.52832 34.8486 4.81758L32.9092 6.70809C32.7913 6.82296 32.7375 6.98846 32.7654 7.15066L33.2232 9.82009C33.2933 10.2285 32.8645 10.54 32.4977 10.3472L30.1004 9.08685C29.9548 9.01027 29.7807 9.01027 29.6351 9.08685L27.2378 10.3472C26.871 10.54 26.4423 10.2285 26.5123 9.8201L26.9701 7.15066C26.998 6.98846 26.9442 6.82296 26.8264 6.70809L24.8869 4.81758C24.5901 4.52832 24.7539 4.02433 25.164 3.96474L27.8443 3.57527C28.0071 3.55161 28.1479 3.44932 28.2207 3.30175L29.4194 0.873017ZM41.4194 0.873017C41.6028 0.501394 42.1327 0.501393 42.3161 0.873016L43.5148 3.30175C43.5876 3.44932 43.7284 3.55161 43.8912 3.57527L46.5715 3.96474C46.9816 4.02433 47.1454 4.52832 46.8486 4.81758L44.9092 6.70809C44.7913 6.82296 44.7375 6.98846 44.7654 7.15066L45.2232 9.82009C45.2933 10.2285 44.8645 10.54 44.4977 10.3472L42.1004 9.08685C41.9548 9.01027 41.7807 9.01027 41.6351 9.08685L39.2378 10.3472C38.871 10.54 38.4422 10.2285 38.5123 9.8201L38.9701 7.15066C38.998 6.98846 38.9442 6.82296 38.8264 6.70809L36.8869 4.81758C36.5901 4.52832 36.7539 4.02433 37.164 3.96474L39.8443 3.57527C40.0071 3.55161 40.1479 3.44932 40.2207 3.30175L41.4194 0.873017ZM53.4194 0.873017C53.6028 0.501394 54.1327 0.501393 54.3161 0.873016L55.5148 3.30175C55.5876 3.44932 55.7284 3.55161 55.8912 3.57527L58.5715 3.96474C58.9816 4.02433 59.1454 4.52832 58.8486 4.81758L56.9092 6.70809C56.7913 6.82296 56.7375 6.98846 56.7654 7.15066L57.2232 9.82009C57.2933 10.2285 56.8645 10.54 56.4977 10.3472L54.1004 9.08685C53.9548 9.01027 53.7807 9.01027 53.6351 9.08685L51.2378 10.3472C50.871 10.54 50.4422 10.2285 50.5123 9.8201L50.9701 7.15066C50.998 6.98846 50.9442 6.82296 50.8264 6.70809L48.8869 4.81758C48.5901 4.52832 48.7539 4.02433 49.164 3.96474L51.8443 3.57527C52.0071 3.55161 52.1479 3.44932 52.2207 3.30175L53.4194 0.873017Z" fill="#FFC700"/>
<path d="M5.41939 0.873017C5.60279 0.501394 6.13272 0.501393 6.31612 0.873016L7.51478 3.30175C7.58761 3.44932 7.72839 3.55161 7.89125 3.57527L10.5715 3.96474C10.9816 4.02433 11.1454 4.52832 10.8486 4.81758L8.90916 6.70809C8.79132 6.82296 8.73754 6.98846 8.76536 7.15066L9.22321 9.82009C9.29326 10.2285 8.86454 10.54 8.49773 10.3472L6.10043 9.08685C5.95476 9.01027 5.78075 9.01027 5.63509 9.08685L3.23778 10.3472C2.87097 10.54 2.44225 10.2285 2.51231 9.8201L2.97015 7.15066C2.99797 6.98846 2.94419 6.82296 2.82635 6.70809L0.886892 4.81758C0.590134 4.52832 0.753888 4.02433 1.164 3.96474L3.84427 3.57527C4.00712 3.55161 4.1479 3.44932 4.22074 3.30175L5.41939 0.873017ZM17.4194 0.873017C17.6028 0.501394 18.1327 0.501393 18.3161 0.873016L19.5148 3.30175C19.5876 3.44932 19.7284 3.55161 19.8912 3.57527L22.5715 3.96474C22.9816 4.02433 23.1454 4.52832 22.8486 4.81758L20.9092 6.70809C20.7913 6.82296 20.7375 6.98846 20.7654 7.15066L21.2232 9.82009C21.2933 10.2285 20.8645 10.54 20.4977 10.3472L18.1004 9.08685C17.9548 9.01027 17.7807 9.01027 17.6351 9.08685L15.2378 10.3472C14.871 10.54 14.4423 10.2285 14.5123 9.8201L14.9701 7.15066C14.998 6.98846 14.9442 6.82296 14.8264 6.70809L12.8869 4.81758C12.5901 4.52832 12.7539 4.02433 13.164 3.96474L15.8443 3.57527C16.0071 3.55161 16.1479 3.44932 16.2207 3.30175L17.4194 0.873017ZM29.4194 0.873017C29.6028 0.501394 30.1327 0.501393 30.3161 0.873016L31.5148 3.30175C31.5876 3.44932 31.7284 3.55161 31.8912 3.57527L34.5715 3.96474C34.9816 4.02433 35.1454 4.52832 34.8486 4.81758L32.9092 6.70809C32.7913 6.82296 32.7375 6.98846 32.7654 7.15066L33.2232 9.82009C33.2933 10.2285 32.8645 10.54 32.4977 10.3472L30.1004 9.08685C29.9548 9.01027 29.7807 9.01027 29.6351 9.08685L27.2378 10.3472C26.871 10.54 26.4423 10.2285 26.5123 9.8201L26.9701 7.15066C26.998 6.98846 26.9442 6.82296 26.8264 6.70809L24.8869 4.81758C24.5901 4.52832 24.7539 4.02433 25.164 3.96474L27.8443 3.57527C28.0071 3.55161 28.1479 3.44932 28.2207 3.30175L29.4194 0.873017ZM41.4194 0.873017C41.6028 0.501394 42.1327 0.501393 42.3161 0.873016L43.5148 3.30175C43.5876 3.44932 43.7284 3.55161 43.8912 3.57527L46.5715 3.96474C46.9816 4.02433 47.1454 4.52832 46.8486 4.81758L44.9092 6.70809C44.7913 6.82296 44.7375 6.98846 44.7654 7.15066L45.2232 9.82009C45.2933 10.2285 44.8645 10.54 44.4977 10.3472L42.1004 9.08685C41.9548 9.01027 41.7807 9.01027 41.6351 9.08685L39.2378 10.3472C38.871 10.54 38.4422 10.2285 38.5123 9.8201L38.9701 7.15066C38.998 6.98846 38.9442 6.82296 38.8264 6.70809L36.8869 4.81758C36.5901 4.52832 36.7539 4.02433 37.164 3.96474L39.8443 3.57527C40.0071 3.55161 40.1479 3.44932 40.2207 3.30175L41.4194 0.873017ZM53.4194 0.873017C53.6028 0.501394 54.1327 0.501393 54.3161 0.873016L55.5148 3.30175C55.5876 3.44932 55.7284 3.55161 55.8912 3.57527L58.5715 3.96474C58.9816 4.02433 59.1454 4.52832 58.8486 4.81758L56.9092 6.70809C56.7913 6.82296 56.7375 6.98846 56.7654 7.15066L57.2232 9.82009C57.2933 10.2285 56.8645 10.54 56.4977 10.3472L54.1004 9.08685C53.9548 9.01027 53.7807 9.01027 53.6351 9.08685L51.2378 10.3472C50.871 10.54 50.4422 10.2285 50.5123 9.8201L50.9701 7.15066C50.998 6.98846 50.9442 6.82296 50.8264 6.70809L48.8869 4.81758C48.5901 4.52832 48.7539 4.02433 49.164 3.96474L51.8443 3.57527C52.0071 3.55161 52.1479 3.44932 52.2207 3.30175L53.4194 0.873017Z" fill="#FFC700"/>
<path d="M5.41939 0.873017C5.60279 0.501394 6.13272 0.501393 6.31612 0.873016L7.51478 3.30175C7.58761 3.44932 7.72839 3.55161 7.89125 3.57527L10.5715 3.96474C10.9816 4.02433 11.1454 4.52832 10.8486 4.81758L8.90916 6.70809C8.79132 6.82296 8.73754 6.98846 8.76536 7.15066L9.22321 9.82009C9.29326 10.2285 8.86454 10.54 8.49773 10.3472L6.10043 9.08685C5.95476 9.01027 5.78075 9.01027 5.63509 9.08685L3.23778 10.3472C2.87097 10.54 2.44225 10.2285 2.51231 9.8201L2.97015 7.15066C2.99797 6.98846 2.94419 6.82296 2.82635 6.70809L0.886892 4.81758C0.590134 4.52832 0.753888 4.02433 1.164 3.96474L3.84427 3.57527C4.00712 3.55161 4.1479 3.44932 4.22074 3.30175L5.41939 0.873017ZM17.4194 0.873017C17.6028 0.501394 18.1327 0.501393 18.3161 0.873016L19.5148 3.30175C19.5876 3.44932 19.7284 3.55161 19.8912 3.57527L22.5715 3.96474C22.9816 4.02433 23.1454 4.52832 22.8486 4.81758L20.9092 6.70809C20.7913 6.82296 20.7375 6.98846 20.7654 7.15066L21.2232 9.82009C21.2933 10.2285 20.8645 10.54 20.4977 10.3472L18.1004 9.08685C17.9548 9.01027 17.7807 9.01027 17.6351 9.08685L15.2378 10.3472C14.871 10.54 14.4423 10.2285 14.5123 9.8201L14.9701 7.15066C14.998 6.98846 14.9442 6.82296 14.8264 6.70809L12.8869 4.81758C12.5901 4.52832 12.7539 4.02433 13.164 3.96474L15.8443 3.57527C16.0071 3.55161 16.1479 3.44932 16.2207 3.30175L17.4194 0.873017ZM29.4194 0.873017C29.6028 0.501394 30.1327 0.501393 30.3161 0.873016L31.5148 3.30175C31.5876 3.44932 31.7284 3.55161 31.8912 3.57527L34.5715 3.96474C34.9816 4.02433 35.1454 4.52832 34.8486 4.81758L32.9092 6.70809C32.7913 6.82296 32.7375 6.98846 32.7654 7.15066L33.2232 9.82009C33.2933 10.2285 32.8645 10.54 32.4977 10.3472L30.1004 9.08685C29.9548 9.01027 29.7807 9.01027 29.6351 9.08685L27.2378 10.3472C26.871 10.54 26.4423 10.2285 26.5123 9.8201L26.9701 7.15066C26.998 6.98846 26.9442 6.82296 26.8264 6.70809L24.8869 4.81758C24.5901 4.52832 24.7539 4.02433 25.164 3.96474L27.8443 3.57527C28.0071 3.55161 28.1479 3.44932 28.2207 3.30175L29.4194 0.873017ZM41.4194 0.873017C41.6028 0.501394 42.1327 0.501393 42.3161 0.873016L43.5148 3.30175C43.5876 3.44932 43.7284 3.55161 43.8912 3.57527L46.5715 3.96474C46.9816 4.02433 47.1454 4.52832 46.8486 4.81758L44.9092 6.70809C44.7913 6.82296 44.7375 6.98846 44.7654 7.15066L45.2232 9.82009C45.2933 10.2285 44.8645 10.54 44.4977 10.3472L42.1004 9.08685C41.9548 9.01027 41.7807 9.01027 41.6351 9.08685L39.2378 10.3472C38.871 10.54 38.4422 10.2285 38.5123 9.8201L38.9701 7.15066C38.998 6.98846 38.9442 6.82296 38.8264 6.70809L36.8869 4.81758C36.5901 4.52832 36.7539 4.02433 37.164 3.96474L39.8443 3.57527C40.0071 3.55161 40.1479 3.44932 40.2207 3.30175L41.4194 0.873017ZM53.4194 0.873017C53.6028 0.501394 54.1327 0.501393 54.3161 0.873016L55.5148 3.30175C55.5876 3.44932 55.7284 3.55161 55.8912 3.57527L58.5715 3.96474C58.9816 4.02433 59.1454 4.52832 58.8486 4.81758L56.9092 6.70809C56.7913 6.82296 56.7375 6.98846 56.7654 7.15066L57.2232 9.82009C57.2933 10.2285 56.8645 10.54 56.4977 10.3472L54.1004 9.08685C53.9548 9.01027 53.7807 9.01027 53.6351 9.08685L51.2378 10.3472C50.871 10.54 50.4422 10.2285 50.5123 9.8201L50.9701 7.15066C50.998 6.98846 50.9442 6.82296 50.8264 6.70809L48.8869 4.81758C48.5901 4.52832 48.7539 4.02433 49.164 3.96474L51.8443 3.57527C52.0071 3.55161 52.1479 3.44932 52.2207 3.30175L53.4194 0.873017Z" fill="#FFC700"/>
</svg>
