<svg width="58" height="11" viewBox="0 0 58 11" fill="none" xmlns="http://www.w3.org/2000/svg">
<path d="M9.96373 4.26201C9.91907 4.11966 9.83479 3.9942 9.7215 3.90143C9.6082 3.80866 9.47097 3.75274 9.32708 3.74071L6.69298 3.52034L5.67595 0.969848C5.62095 0.830873 5.52733 0.711997 5.40701 0.628334C5.28669 0.544671 5.1451 0.5 5.00023 0.5C4.85537 0.5 4.71377 0.544671 4.59345 0.628334C4.47313 0.711997 4.37952 0.830873 4.32452 0.969848L3.30838 3.51988L0.67294 3.74071C0.528813 3.75335 0.391488 3.80982 0.27817 3.90303C0.164853 3.99624 0.0805817 4.12206 0.035916 4.26472C-0.00874974 4.40738 -0.011824 4.56054 0.0270784 4.705C0.0659808 4.84947 0.14513 4.97881 0.254609 5.07684L2.26367 6.87454L1.65158 9.56253C1.61734 9.70856 1.62572 9.86185 1.67566 10.0029C1.72559 10.144 1.81482 10.2665 1.93202 10.3549C2.04922 10.4433 2.18911 10.4936 2.33393 10.4994C2.47875 10.5052 2.62196 10.4663 2.7454 10.3875L5.00001 8.94864L7.25596 10.3875C7.37944 10.4654 7.52236 10.5036 7.66673 10.4973C7.8111 10.4911 7.95046 10.4407 8.06726 10.3525C8.18407 10.2643 8.27309 10.1422 8.32313 10.0016C8.37316 9.86106 8.38197 9.70828 8.34844 9.56253L7.73412 6.87408L9.74318 5.07637C9.85354 4.97851 9.93342 4.84889 9.97268 4.70391C10.0119 4.55894 10.0088 4.40515 9.96373 4.26201ZM9.27886 4.51526L7.10461 6.45972C7.05503 6.50404 7.01814 6.56164 6.99799 6.62622C6.97783 6.6908 6.97518 6.75989 6.99032 6.82593L7.65465 9.73337C7.65637 9.73737 7.65654 9.74191 7.65513 9.74605C7.65371 9.75018 7.65083 9.7536 7.64706 9.75559C7.63902 9.76207 7.63679 9.76068 7.63009 9.75559L5.18708 8.1977C5.13081 8.16183 5.06606 8.14284 5.00001 8.14284C4.93396 8.14284 4.86921 8.16183 4.81294 8.1977L2.36993 9.75652C2.36323 9.76068 2.36144 9.76207 2.35296 9.75652C2.34919 9.75452 2.3463 9.75111 2.34489 9.74697C2.34348 9.74284 2.34365 9.7383 2.34537 9.73429L3.0097 6.82685C3.02484 6.76081 3.02219 6.69173 3.00203 6.62714C2.98187 6.56256 2.94499 6.50497 2.89541 6.46065L0.721157 4.51618C0.7158 4.51155 0.710889 4.50739 0.715353 4.49303C0.719818 4.47868 0.72339 4.48053 0.730086 4.47961L3.58384 4.24072C3.6493 4.23489 3.71194 4.21046 3.76487 4.17011C3.8178 4.12976 3.85898 4.07506 3.88386 4.01201L4.98304 1.25226C4.98662 1.24439 4.98796 1.24068 4.99867 1.24068C5.00939 1.24068 5.01073 1.24439 5.0143 1.25226L6.11615 4.01201C6.14128 4.07508 6.18271 4.12973 6.23589 4.16992C6.28907 4.21012 6.35192 4.2343 6.41751 4.23979L9.27127 4.47868C9.27797 4.47868 9.28199 4.47868 9.28601 4.49211C9.29002 4.50553 9.28601 4.51063 9.27886 4.51526Z" fill="#FFC700"/>
<path d="M21.9637 4.26201C21.9191 4.11966 21.8348 3.9942 21.7215 3.90143C21.6082 3.80866 21.471 3.75274 21.3271 3.74071L18.693 3.52034L17.6759 0.969848C17.6209 0.830873 17.5273 0.711997 17.407 0.628334C17.2867 0.544671 17.1451 0.5 17.0002 0.5C16.8554 0.5 16.7138 0.544671 16.5935 0.628334C16.4731 0.711997 16.3795 0.830873 16.3245 0.969848L15.3084 3.51988L12.6729 3.74071C12.5288 3.75335 12.3915 3.80982 12.2782 3.90303C12.1649 3.99624 12.0806 4.12206 12.0359 4.26472C11.9913 4.40738 11.9882 4.56054 12.0271 4.705C12.066 4.84947 12.1451 4.97881 12.2546 5.07684L14.2637 6.87454L13.6516 9.56253C13.6173 9.70856 13.6257 9.86185 13.6757 10.0029C13.7256 10.144 13.8148 10.2665 13.932 10.3549C14.0492 10.4433 14.1891 10.4936 14.3339 10.4994C14.4787 10.5052 14.622 10.4663 14.7454 10.3875L17 8.94864L19.256 10.3875C19.3794 10.4654 19.5224 10.5036 19.6667 10.4973C19.8111 10.4911 19.9505 10.4407 20.0673 10.3525C20.1841 10.2643 20.2731 10.1422 20.3231 10.0016C20.3732 9.86106 20.382 9.70828 20.3484 9.56253L19.7341 6.87408L21.7432 5.07637C21.8535 4.97851 21.9334 4.84889 21.9727 4.70391C22.0119 4.55894 22.0088 4.40515 21.9637 4.26201ZM21.2789 4.51526L19.1046 6.45972C19.055 6.50404 19.0181 6.56164 18.998 6.62622C18.9778 6.6908 18.9752 6.75989 18.9903 6.82593L19.6546 9.73337C19.6564 9.73737 19.6565 9.74191 19.6551 9.74605C19.6537 9.75018 19.6508 9.7536 19.6471 9.75559C19.639 9.76207 19.6368 9.76068 19.6301 9.75559L17.1871 8.1977C17.1308 8.16183 17.0661 8.14284 17 8.14284C16.934 8.14284 16.8692 8.16183 16.8129 8.1977L14.3699 9.75652C14.3632 9.76068 14.3614 9.76207 14.353 9.75652C14.3492 9.75452 14.3463 9.75111 14.3449 9.74697C14.3435 9.74284 14.3437 9.7383 14.3454 9.73429L15.0097 6.82685C15.0248 6.76081 15.0222 6.69173 15.002 6.62714C14.9819 6.56256 14.945 6.50497 14.8954 6.46065L12.7212 4.51618C12.7158 4.51155 12.7109 4.50739 12.7154 4.49303C12.7198 4.47868 12.7234 4.48053 12.7301 4.47961L15.5838 4.24072C15.6493 4.23489 15.7119 4.21046 15.7649 4.17011C15.8178 4.12976 15.859 4.07506 15.8839 4.01201L16.983 1.25226C16.9866 1.24439 16.988 1.24068 16.9987 1.24068C17.0094 1.24068 17.0107 1.24439 17.0143 1.25226L18.1162 4.01201C18.1413 4.07508 18.1827 4.12973 18.2359 4.16992C18.2891 4.21012 18.3519 4.2343 18.4175 4.23979L21.2713 4.47868C21.278 4.47868 21.282 4.47868 21.286 4.49211C21.29 4.50553 21.286 4.51063 21.2789 4.51526Z" fill="#FFC700"/>
<path d="M33.9637 4.26201C33.9191 4.11966 33.8348 3.9942 33.7215 3.90143C33.6082 3.80866 33.471 3.75274 33.3271 3.74071L30.693 3.52034L29.6759 0.969848C29.6209 0.830873 29.5273 0.711997 29.407 0.628334C29.2867 0.544671 29.1451 0.5 29.0002 0.5C28.8554 0.5 28.7138 0.544671 28.5935 0.628334C28.4731 0.711997 28.3795 0.830873 28.3245 0.969848L27.3084 3.51988L24.6729 3.74071C24.5288 3.75335 24.3915 3.80982 24.2782 3.90303C24.1649 3.99624 24.0806 4.12206 24.0359 4.26472C23.9913 4.40738 23.9882 4.56054 24.0271 4.705C24.066 4.84947 24.1451 4.97881 24.2546 5.07684L26.2637 6.87454L25.6516 9.56253C25.6173 9.70856 25.6257 9.86185 25.6757 10.0029C25.7256 10.144 25.8148 10.2665 25.932 10.3549C26.0492 10.4433 26.1891 10.4936 26.3339 10.4994C26.4787 10.5052 26.622 10.4663 26.7454 10.3875L29 8.94864L31.256 10.3875C31.3794 10.4654 31.5224 10.5036 31.6667 10.4973C31.8111 10.4911 31.9505 10.4407 32.0673 10.3525C32.1841 10.2643 32.2731 10.1422 32.3231 10.0016C32.3732 9.86106 32.382 9.70828 32.3484 9.56253L31.7341 6.87408L33.7432 5.07637C33.8535 4.97851 33.9334 4.84889 33.9727 4.70391C34.0119 4.55894 34.0088 4.40515 33.9637 4.26201ZM33.2789 4.51526L31.1046 6.45972C31.055 6.50404 31.0181 6.56164 30.998 6.62622C30.9778 6.6908 30.9752 6.75989 30.9903 6.82593L31.6546 9.73337C31.6564 9.73737 31.6565 9.74191 31.6551 9.74605C31.6537 9.75018 31.6508 9.7536 31.6471 9.75559C31.639 9.76207 31.6368 9.76068 31.6301 9.75559L29.1871 8.1977C29.1308 8.16183 29.0661 8.14284 29 8.14284C28.934 8.14284 28.8692 8.16183 28.8129 8.1977L26.3699 9.75652C26.3632 9.76068 26.3614 9.76207 26.353 9.75652C26.3492 9.75452 26.3463 9.75111 26.3449 9.74697C26.3435 9.74284 26.3437 9.7383 26.3454 9.73429L27.0097 6.82685C27.0248 6.76081 27.0222 6.69173 27.002 6.62714C26.9819 6.56256 26.945 6.50497 26.8954 6.46065L24.7212 4.51618C24.7158 4.51155 24.7109 4.50739 24.7154 4.49303C24.7198 4.47868 24.7234 4.48053 24.7301 4.47961L27.5838 4.24072C27.6493 4.23489 27.7119 4.21046 27.7649 4.17011C27.8178 4.12976 27.859 4.07506 27.8839 4.01201L28.983 1.25226C28.9866 1.24439 28.988 1.24068 28.9987 1.24068C29.0094 1.24068 29.0107 1.24439 29.0143 1.25226L30.1162 4.01201C30.1413 4.07508 30.1827 4.12973 30.2359 4.16992C30.2891 4.21012 30.3519 4.2343 30.4175 4.23979L33.2713 4.47868C33.278 4.47868 33.282 4.47868 33.286 4.49211C33.29 4.50553 33.286 4.51063 33.2789 4.51526Z" fill="#FFC700"/>
<g filter="url(#filter0_d_125_338)">
<path d="M45.9637 4.26201C45.9191 4.11966 45.8348 3.9942 45.7215 3.90143C45.6082 3.80866 45.471 3.75274 45.3271 3.74071L42.693 3.52034L41.6759 0.969848C41.6209 0.830873 41.5273 0.711997 41.407 0.628334C41.2867 0.544671 41.1451 0.5 41.0002 0.5C40.8554 0.5 40.7138 0.544671 40.5935 0.628334C40.4731 0.711997 40.3795 0.830873 40.3245 0.969848L39.3084 3.51988L36.6729 3.74071C36.5288 3.75335 36.3915 3.80982 36.2782 3.90303C36.1649 3.99624 36.0806 4.12206 36.0359 4.26472C35.9913 4.40738 35.9882 4.56054 36.0271 4.705C36.066 4.84947 36.1451 4.97881 36.2546 5.07684L38.2637 6.87454L37.6516 9.56253C37.6173 9.70856 37.6257 9.86185 37.6757 10.0029C37.7256 10.144 37.8148 10.2665 37.932 10.3549C38.0492 10.4433 38.1891 10.4936 38.3339 10.4994C38.4787 10.5052 38.622 10.4663 38.7454 10.3875L41 8.94864L43.256 10.3875C43.3794 10.4654 43.5224 10.5036 43.6667 10.4973C43.8111 10.4911 43.9505 10.4407 44.0673 10.3525C44.1841 10.2643 44.2731 10.1422 44.3231 10.0016C44.3732 9.86106 44.382 9.70828 44.3484 9.56253L43.7341 6.87408L45.7432 5.07637C45.8535 4.97851 45.9334 4.84889 45.9727 4.70391C46.0119 4.55894 46.0088 4.40515 45.9637 4.26201ZM45.2789 4.51526L43.1046 6.45972C43.055 6.50404 43.0181 6.56164 42.998 6.62622C42.9778 6.6908 42.9752 6.75989 42.9903 6.82593L43.6546 9.73337C43.6564 9.73737 43.6565 9.74191 43.6551 9.74605C43.6537 9.75018 43.6508 9.7536 43.6471 9.75559C43.639 9.76207 43.6368 9.76068 43.6301 9.75559L41.1871 8.1977C41.1308 8.16183 41.0661 8.14284 41 8.14284C40.934 8.14284 40.8692 8.16183 40.8129 8.1977L38.3699 9.75652C38.3632 9.76068 38.3614 9.76207 38.353 9.75652C38.3492 9.75452 38.3463 9.75111 38.3449 9.74697C38.3435 9.74284 38.3437 9.7383 38.3454 9.73429L39.0097 6.82685C39.0248 6.76081 39.0222 6.69173 39.002 6.62714C38.9819 6.56256 38.945 6.50497 38.8954 6.46065L36.7212 4.51618C36.7158 4.51155 36.7109 4.50739 36.7154 4.49303C36.7198 4.47868 36.7234 4.48053 36.7301 4.47961L39.5838 4.24072C39.6493 4.23489 39.7119 4.21046 39.7649 4.17011C39.8178 4.12976 39.859 4.07506 39.8839 4.01201L40.983 1.25226C40.9866 1.24439 40.988 1.24068 40.9987 1.24068C41.0094 1.24068 41.0107 1.24439 41.0143 1.25226L42.1162 4.01201C42.1413 4.07508 42.1827 4.12973 42.2359 4.16992C42.2891 4.21012 42.3519 4.2343 42.4175 4.23979L45.2713 4.47868C45.278 4.47868 45.282 4.47868 45.286 4.49211C45.29 4.50553 45.286 4.51063 45.2789 4.51526Z" fill="#FFC700"/>
</g>
<mask id="path-5-inside-1_125_338" fill="white">
<path d="M57.9637 4.26201C57.9191 4.11966 57.8348 3.9942 57.7215 3.90143C57.6082 3.80866 57.471 3.75274 57.3271 3.74071L54.693 3.52034L53.6759 0.969848C53.6209 0.830873 53.5273 0.711997 53.407 0.628334C53.2867 0.544671 53.1451 0.5 53.0002 0.5C52.8554 0.5 52.7138 0.544671 52.5935 0.628334C52.4731 0.711997 52.3795 0.830873 52.3245 0.969848L51.3084 3.51988L48.6729 3.74071C48.5288 3.75335 48.3915 3.80982 48.2782 3.90303C48.1649 3.99624 48.0806 4.12206 48.0359 4.26472C47.9913 4.40738 47.9882 4.56054 48.0271 4.705C48.066 4.84947 48.1451 4.97881 48.2546 5.07684L50.2637 6.87454L49.6516 9.56253C49.6173 9.70856 49.6257 9.86185 49.6757 10.0029C49.7256 10.144 49.8148 10.2665 49.932 10.3549C50.0492 10.4433 50.1891 10.4936 50.3339 10.4994C50.4787 10.5052 50.622 10.4663 50.7454 10.3875L53 8.94864L55.256 10.3875C55.3794 10.4654 55.5224 10.5036 55.6667 10.4973C55.8111 10.4911 55.9505 10.4407 56.0673 10.3525C56.1841 10.2643 56.2731 10.1422 56.3231 10.0016C56.3732 9.86106 56.382 9.70828 56.3484 9.56253L55.7341 6.87408L57.7432 5.07637C57.8535 4.97851 57.9334 4.84889 57.9727 4.70391C58.0119 4.55894 58.0088 4.40515 57.9637 4.26201ZM57.2789 4.51526L55.1046 6.45972C55.055 6.50404 55.0181 6.56164 54.998 6.62622C54.9778 6.6908 54.9752 6.75989 54.9903 6.82593L55.6546 9.73337C55.6564 9.73737 55.6565 9.74191 55.6551 9.74605C55.6537 9.75018 55.6508 9.7536 55.6471 9.75559C55.639 9.76207 55.6368 9.76068 55.6301 9.75559L53.1871 8.1977C53.1308 8.16183 53.0661 8.14284 53 8.14284C52.934 8.14284 52.8692 8.16183 52.8129 8.1977L50.3699 9.75652C50.3632 9.76068 50.3614 9.76207 50.353 9.75652C50.3492 9.75452 50.3463 9.75111 50.3449 9.74697C50.3435 9.74284 50.3437 9.7383 50.3454 9.73429L51.0097 6.82685C51.0248 6.76081 51.0222 6.69173 51.002 6.62714C50.9819 6.56256 50.945 6.50497 50.8954 6.46065L48.7212 4.51618C48.7158 4.51155 48.7109 4.50739 48.7154 4.49303C48.7198 4.47868 48.7234 4.48053 48.7301 4.47961L51.5838 4.24072C51.6493 4.23489 51.7119 4.21046 51.7649 4.17011C51.8178 4.12976 51.859 4.07506 51.8839 4.01201L52.983 1.25226C52.9866 1.24439 52.988 1.24068 52.9987 1.24068C53.0094 1.24068 53.0107 1.24439 53.0143 1.25226L54.1162 4.01201C54.1413 4.07508 54.1827 4.12973 54.2359 4.16992C54.2891 4.21012 54.3519 4.2343 54.4175 4.23979L57.2713 4.47868C57.278 4.47868 57.282 4.47868 57.286 4.49211C57.29 4.50553 57.286 4.51063 57.2789 4.51526Z"/>
</mask>
<path d="M57.9637 4.26201C57.9191 4.11966 57.8348 3.9942 57.7215 3.90143C57.6082 3.80866 57.471 3.75274 57.3271 3.74071L54.693 3.52034L53.6759 0.969848C53.6209 0.830873 53.5273 0.711997 53.407 0.628334C53.2867 0.544671 53.1451 0.5 53.0002 0.5C52.8554 0.5 52.7138 0.544671 52.5935 0.628334C52.4731 0.711997 52.3795 0.830873 52.3245 0.969848L51.3084 3.51988L48.6729 3.74071C48.5288 3.75335 48.3915 3.80982 48.2782 3.90303C48.1649 3.99624 48.0806 4.12206 48.0359 4.26472C47.9913 4.40738 47.9882 4.56054 48.0271 4.705C48.066 4.84947 48.1451 4.97881 48.2546 5.07684L50.2637 6.87454L49.6516 9.56253C49.6173 9.70856 49.6257 9.86185 49.6757 10.0029C49.7256 10.144 49.8148 10.2665 49.932 10.3549C50.0492 10.4433 50.1891 10.4936 50.3339 10.4994C50.4787 10.5052 50.622 10.4663 50.7454 10.3875L53 8.94864L55.256 10.3875C55.3794 10.4654 55.5224 10.5036 55.6667 10.4973C55.8111 10.4911 55.9505 10.4407 56.0673 10.3525C56.1841 10.2643 56.2731 10.1422 56.3231 10.0016C56.3732 9.86106 56.382 9.70828 56.3484 9.56253L55.7341 6.87408L57.7432 5.07637C57.8535 4.97851 57.9334 4.84889 57.9727 4.70391C58.0119 4.55894 58.0088 4.40515 57.9637 4.26201ZM57.2789 4.51526L55.1046 6.45972C55.055 6.50404 55.0181 6.56164 54.998 6.62622C54.9778 6.6908 54.9752 6.75989 54.9903 6.82593L55.6546 9.73337C55.6564 9.73737 55.6565 9.74191 55.6551 9.74605C55.6537 9.75018 55.6508 9.7536 55.6471 9.75559C55.639 9.76207 55.6368 9.76068 55.6301 9.75559L53.1871 8.1977C53.1308 8.16183 53.0661 8.14284 53 8.14284C52.934 8.14284 52.8692 8.16183 52.8129 8.1977L50.3699 9.75652C50.3632 9.76068 50.3614 9.76207 50.353 9.75652C50.3492 9.75452 50.3463 9.75111 50.3449 9.74697C50.3435 9.74284 50.3437 9.7383 50.3454 9.73429L51.0097 6.82685C51.0248 6.76081 51.0222 6.69173 51.002 6.62714C50.9819 6.56256 50.945 6.50497 50.8954 6.46065L48.7212 4.51618C48.7158 4.51155 48.7109 4.50739 48.7154 4.49303C48.7198 4.47868 48.7234 4.48053 48.7301 4.47961L51.5838 4.24072C51.6493 4.23489 51.7119 4.21046 51.7649 4.17011C51.8178 4.12976 51.859 4.07506 51.8839 4.01201L52.983 1.25226C52.9866 1.24439 52.988 1.24068 52.9987 1.24068C53.0094 1.24068 53.0107 1.24439 53.0143 1.25226L54.1162 4.01201C54.1413 4.07508 54.1827 4.12973 54.2359 4.16992C54.2891 4.21012 54.3519 4.2343 54.4175 4.23979L57.2713 4.47868C57.278 4.47868 57.282 4.47868 57.286 4.49211C57.29 4.50553 57.286 4.51063 57.2789 4.51526Z" fill="#FFC700"/>
<path d="M57.9637 4.26201L57.0096 4.56133L57.0099 4.56252L57.9637 4.26201ZM57.3271 3.74071L57.2437 4.73723L57.2437 4.73723L57.3271 3.74071ZM54.693 3.52034L53.7641 3.89073L53.9932 4.46529L54.6096 4.51686L54.693 3.52034ZM53.6759 0.969848L52.7461 1.33784L52.7471 1.34024L53.6759 0.969848ZM52.3245 0.969848L53.2535 1.34002L53.2543 1.33784L52.3245 0.969848ZM51.3084 3.51988L51.3919 4.51638L52.0083 4.46473L52.2373 3.89005L51.3084 3.51988ZM48.6729 3.74071L48.5894 2.7442L48.5856 2.74453L48.6729 3.74071ZM48.2546 5.07684L47.5876 5.82185L47.5878 5.82205L48.2546 5.07684ZM50.2637 6.87454L51.2387 7.09657L51.3695 6.52216L50.9305 6.12932L50.2637 6.87454ZM49.6516 9.56253L50.6252 9.79077L50.6266 9.78456L49.6516 9.56253ZM50.7454 10.3875L51.2833 11.2306L51.2834 11.2305L50.7454 10.3875ZM53 8.94864L53.5378 8.10553L52.9998 7.76244L52.462 8.10568L53 8.94864ZM55.256 10.3875L54.7182 11.2307L54.7228 11.2335L55.256 10.3875ZM56.0673 10.3525L56.6699 11.1505L56.0673 10.3525ZM56.3484 9.56253L55.3736 9.7853L55.3739 9.78671L56.3484 9.56253ZM55.7341 6.87408L55.0673 6.12886L54.6279 6.52203L54.7592 7.09684L55.7341 6.87408ZM57.7432 5.07637L57.0797 4.32814L57.0764 4.33115L57.7432 5.07637ZM57.2789 4.51526L56.735 3.67609L56.67 3.71822L56.6122 3.76986L57.2789 4.51526ZM55.1046 6.45972L55.771 7.2053L55.7712 7.20512L55.1046 6.45972ZM54.9903 6.82593L55.9652 6.60318L55.965 6.60246L54.9903 6.82593ZM55.6546 9.73337L54.6798 9.95612L54.6999 10.0444L54.7356 10.1276L55.6546 9.73337ZM55.6471 9.75559L55.1796 8.87155L55.0944 8.91664L55.0193 8.97721L55.6471 9.75559ZM55.6301 9.75559L56.2354 8.9596L56.2026 8.93462L56.1678 8.91243L55.6301 9.75559ZM53.1871 8.1977L53.7247 7.35455L53.7247 7.3545L53.1871 8.1977ZM52.8129 8.1977L52.2754 7.3545L52.275 7.35469L52.8129 8.1977ZM50.3699 9.75652L50.8982 10.6056L50.9078 10.5995L50.3699 9.75652ZM50.353 9.75652L50.9008 8.91996L50.8617 8.89434L50.8204 8.87247L50.353 9.75652ZM50.3454 9.73429L51.2644 10.1285L51.3001 10.0453L51.3202 9.95704L50.3454 9.73429ZM51.0097 6.82685L50.035 6.60339L50.0348 6.6041L51.0097 6.82685ZM50.8954 6.46065L50.2288 7.20604L50.229 7.20623L50.8954 6.46065ZM48.7212 4.51618L49.3878 3.77078L49.3814 3.76511L49.375 3.75955L48.7212 4.51618ZM48.7301 4.47961L48.6467 3.48309L48.6198 3.48534L48.5931 3.48903L48.7301 4.47961ZM51.5838 4.24072L51.6673 5.23724L51.6724 5.23678L51.5838 4.24072ZM51.8839 4.01201L50.9548 3.64199L50.9537 3.64483L51.8839 4.01201ZM52.983 1.25226L52.0724 0.839013L52.0627 0.860409L52.054 0.882238L52.983 1.25226ZM53.0143 1.25226L53.943 0.88146L53.9345 0.860028L53.9249 0.839013L53.0143 1.25226ZM54.1162 4.01201L55.0452 3.64198L55.0449 3.64121L54.1162 4.01201ZM54.4175 4.23979L54.334 5.2363L54.3341 5.2363L54.4175 4.23979ZM57.2713 4.47868L57.1879 5.4752L57.2295 5.47868H57.2713V4.47868ZM57.286 4.49211L56.328 4.77882L57.286 4.49211ZM58.9179 3.9627C58.816 3.63807 58.6221 3.34644 58.355 3.12772L57.088 4.67515C57.0474 4.64196 57.0221 4.60125 57.0096 4.56133L58.9179 3.9627ZM58.355 3.12772C58.0875 2.90864 57.759 2.77334 57.4104 2.74419L57.2437 4.73723C57.1829 4.73214 57.1289 4.70869 57.088 4.67515L58.355 3.12772ZM57.4104 2.74419L54.7763 2.52382L54.6096 4.51686L57.2437 4.73723L57.4104 2.74419ZM55.6219 3.14994L54.6048 0.599451L52.7471 1.34024L53.7641 3.89073L55.6219 3.14994ZM54.6058 0.601855C54.4799 0.283697 54.2632 0.0057095 53.9779 -0.192693L52.8361 1.44936C52.7914 1.41829 52.762 1.37805 52.7461 1.33784L54.6058 0.601855ZM53.9779 -0.192693C53.6921 -0.391427 53.3517 -0.5 53.0002 -0.5V1.5C52.9385 1.5 52.8813 1.48077 52.8361 1.44936L53.9779 -0.192693ZM53.0002 -0.5C52.6487 -0.5 52.3084 -0.391427 52.0226 -0.192693L53.1643 1.44936C53.1192 1.48077 53.062 1.5 53.0002 1.5V-0.5ZM52.0226 -0.192693C51.7372 0.00571045 51.5206 0.283698 51.3947 0.601855L53.2543 1.33784C53.2384 1.37805 53.209 1.41828 53.1643 1.44936L52.0226 -0.192693ZM51.3956 0.599674L50.3794 3.1497L52.2373 3.89005L53.2535 1.34002L51.3956 0.599674ZM51.2249 2.52337L48.5894 2.7442L48.7564 4.73722L51.3919 4.51638L51.2249 2.52337ZM48.5856 2.74453C48.2374 2.77507 47.9097 2.91126 47.6429 3.13075L48.9134 4.67531C48.8733 4.70837 48.8202 4.73163 48.7603 4.73689L48.5856 2.74453ZM47.6429 3.13075C47.3765 3.34987 47.1832 3.64149 47.0816 3.96593L48.9902 4.56351C48.978 4.60264 48.9532 4.64262 48.9134 4.67531L47.6429 3.13075ZM47.0816 3.96593C46.9801 4.29016 46.9732 4.63716 47.0615 4.96503L48.9927 4.44498C49.0032 4.48391 49.0024 4.5246 48.9902 4.56351L47.0816 3.96593ZM47.0615 4.96503C47.1498 5.29308 47.3309 5.59205 47.5876 5.82185L48.9217 4.33183C48.9594 4.36557 48.9821 4.40585 48.9927 4.44498L47.0615 4.96503ZM47.5878 5.82205L49.5968 7.61976L50.9305 6.12932L48.9214 4.33162L47.5878 5.82205ZM49.2886 6.65251L48.6765 9.3405L50.6266 9.78456L51.2387 7.09657L49.2886 6.65251ZM48.678 9.3343C48.6001 9.66628 48.619 10.0146 48.733 10.3366L50.6184 9.66929C50.6324 9.70911 50.6345 9.75085 50.6252 9.79076L48.678 9.3343ZM48.733 10.3366C48.847 10.6588 49.0528 10.9443 49.3299 11.1533L50.5342 9.55656C50.5768 9.58873 50.6042 9.62924 50.6184 9.66929L48.733 10.3366ZM49.3299 11.1533C49.6074 11.3626 49.9428 11.4846 50.2939 11.4986L50.374 9.50024C50.4354 9.5027 50.4911 9.52405 50.5342 9.55656L49.3299 11.1533ZM50.2939 11.4986C50.645 11.5127 50.9895 11.418 51.2833 11.2306L50.2075 9.54451C50.2544 9.51462 50.3125 9.49777 50.374 9.50024L50.2939 11.4986ZM51.2834 11.2305L53.538 9.79159L52.462 8.10568L50.2074 9.54458L51.2834 11.2305ZM52.4623 9.79174L54.7182 11.2306L55.7937 9.54444L53.5378 8.10553L52.4623 9.79174ZM54.7228 11.2335C55.0165 11.4187 55.3602 11.5115 55.7099 11.4964L55.6235 9.49825C55.6846 9.49561 55.7424 9.51207 55.7891 9.54154L54.7228 11.2335ZM55.7099 11.4964C56.0596 11.4813 56.3935 11.3592 56.6699 11.1505L55.4646 9.55445C55.5074 9.52217 55.5626 9.50088 55.6235 9.49825L55.7099 11.4964ZM56.6699 11.1505C56.9458 10.9421 57.151 10.6578 57.2652 10.337L55.381 9.66628C55.3952 9.62656 55.4223 9.5864 55.4646 9.55445L56.6699 11.1505ZM57.2652 10.337C57.3793 10.0163 57.3991 9.66942 57.323 9.33835L55.3739 9.78671C55.3648 9.74714 55.367 9.70576 55.381 9.66628L57.2652 10.337ZM57.3233 9.33977L56.709 6.65131L54.7592 7.09684L55.3736 9.78529L57.3233 9.33977ZM56.4009 7.6193L58.41 5.82159L57.0764 4.33115L55.0673 6.12886L56.4009 7.6193ZM58.4066 5.8246C58.6657 5.59488 58.8487 5.29487 58.9379 4.96532L57.0075 4.44251C57.0182 4.4029 57.0414 4.36215 57.0797 4.32815L58.4066 5.8246ZM58.9379 4.96532C59.0271 4.63596 59.0201 4.28716 58.9175 3.9615L57.0099 4.56252C56.9975 4.52314 56.9968 4.48192 57.0075 4.44251L58.9379 4.96532ZM56.6122 3.76986L54.438 5.71432L55.7712 7.20512L57.9455 5.26065L56.6122 3.76986ZM54.4382 5.71414C54.2514 5.88107 54.1164 6.09434 54.0434 6.32829L55.9526 6.92415C55.9199 7.02893 55.8586 7.12701 55.771 7.2053L54.4382 5.71414ZM54.0434 6.32829C53.9704 6.56209 53.961 6.8111 54.0156 7.04939L55.965 6.60246C55.9894 6.70867 55.9852 6.81951 55.9526 6.92415L54.0434 6.32829ZM54.0154 7.04868L54.6798 9.95612L56.6295 9.51061L55.9652 6.60318L54.0154 7.04868ZM54.7356 10.1276C54.6395 9.90355 54.6304 9.65245 54.7088 9.42284L56.6015 10.0693C56.6827 9.83137 56.6732 9.57119 56.5737 9.33916L54.7356 10.1276ZM54.7088 9.42284C54.7875 9.1925 54.952 8.9919 55.1796 8.87155L56.1145 10.6396C56.3496 10.5153 56.52 10.3079 56.6015 10.0693L54.7088 9.42284ZM55.0193 8.97721C55.0395 8.96091 55.1062 8.90756 55.2049 8.85961C55.3177 8.80479 55.493 8.74682 55.7102 8.76254C55.9179 8.77756 56.0676 8.85361 56.1385 8.895C56.1743 8.91586 56.201 8.93452 56.2137 8.94364C56.2208 8.94868 56.2263 8.95279 56.2296 8.95521C56.2328 8.95759 56.2351 8.95939 56.2354 8.9596L55.0248 10.5516C55.0257 10.5523 55.037 10.5609 55.0511 10.571C55.0653 10.5811 55.0933 10.6007 55.1303 10.6223C55.2038 10.6652 55.3559 10.7421 55.5659 10.7573C55.9931 10.7882 56.2708 10.5372 56.2749 10.534L55.0193 8.97721ZM56.1678 8.91243L53.7247 7.35455L52.6494 9.04086L55.0924 10.5987L56.1678 8.91243ZM53.7247 7.3545C53.5095 7.21735 53.2586 7.14284 53 7.14284V9.14284C52.8735 9.14284 52.7521 9.10631 52.6495 9.04091L53.7247 7.3545ZM53 7.14284C52.7414 7.14284 52.4905 7.21735 52.2754 7.3545L53.3505 9.04091C53.2479 9.10631 53.1265 9.14284 53 9.14284V7.14284ZM52.275 7.35469L49.832 8.91351L50.9078 10.5995L53.3508 9.04071L52.275 7.35469ZM49.8416 8.90745C49.8195 8.92121 49.8654 8.89149 49.9136 8.86708C49.9764 8.83521 50.1085 8.77621 50.2882 8.76289C50.6501 8.73609 50.8992 8.91886 50.9008 8.91996L49.8051 10.5931C49.8152 10.5997 50.0694 10.7846 50.436 10.7574C50.6181 10.7439 50.7524 10.6842 50.8177 10.651C50.8684 10.6254 50.917 10.5939 50.8982 10.6056L49.8416 8.90745ZM50.8204 8.87247C51.0481 8.99286 51.2126 9.19349 51.2912 9.42377L49.3986 10.0702C49.48 10.3087 49.6503 10.5162 49.8856 10.6406L50.8204 8.87247ZM51.2912 9.42377C51.3697 9.65345 51.3605 9.90455 51.2644 10.1285L49.4263 9.34009C49.3268 9.57205 49.3173 9.83223 49.3986 10.0702L51.2912 9.42377ZM51.3202 9.95704L51.9846 7.04961L50.0348 6.6041L49.3705 9.51154L51.3202 9.95704ZM51.9844 7.05032C52.039 6.81203 52.0296 6.56301 51.9566 6.32922L50.0474 6.92507C50.0148 6.82044 50.0106 6.7096 50.035 6.60339L51.9844 7.05032ZM51.9566 6.32922C51.8836 6.09526 51.7486 5.882 51.5618 5.71506L50.229 7.20623C50.1414 7.12793 50.0801 7.02986 50.0474 6.92507L51.9566 6.32922ZM51.562 5.71525L49.3878 3.77078L48.0545 5.26158L50.2288 7.20604L51.562 5.71525ZM49.375 3.75955C49.3421 3.73115 49.5424 3.88035 49.6455 4.14307C49.7596 4.43394 49.7033 4.68374 49.6702 4.79007L47.7605 4.196C47.7229 4.31668 47.6669 4.57574 47.7836 4.87344C47.8391 5.01495 47.9159 5.11719 47.9754 5.18312C48.0038 5.21445 48.0286 5.23794 48.0435 5.25164C48.0512 5.25865 48.0575 5.26423 48.0613 5.26754C48.0632 5.26924 48.0648 5.27062 48.0657 5.27146C48.0662 5.27188 48.0666 5.27224 48.0669 5.27245C48.067 5.27256 48.0671 5.27265 48.0672 5.27271C48.0674 5.27286 48.0672 5.27272 48.0673 5.27281L49.375 3.75955ZM49.6702 4.79007C49.6609 4.81987 49.6364 4.89491 49.5858 4.9829C49.5305 5.0793 49.4292 5.2172 49.2563 5.3265C49.0843 5.43526 48.924 5.46241 48.8587 5.47118C48.8317 5.47481 48.8062 5.47682 48.8157 5.47598C48.8171 5.47586 48.8395 5.47399 48.867 5.47018L48.5931 3.48903C48.6068 3.48714 48.6182 3.48586 48.6261 3.48504C48.6336 3.48427 48.6395 3.48376 48.6397 3.48374C48.6477 3.48303 48.6208 3.48517 48.5925 3.48898C48.5245 3.49811 48.3617 3.52587 48.1875 3.63607C48.0123 3.74682 47.9088 3.887 47.8514 3.98712C47.7987 4.07883 47.772 4.15902 47.7605 4.196L49.6702 4.79007ZM48.8135 5.47612L51.6673 5.23723L51.5004 3.2442L48.6467 3.48309L48.8135 5.47612ZM51.6724 5.23678C51.9285 5.21401 52.1701 5.11864 52.3711 4.96539L51.1586 3.37484C51.2538 3.30229 51.3701 3.25578 51.4952 3.24465L51.6724 5.23678ZM52.3711 4.96539C52.5718 4.81241 52.7235 4.60851 52.814 4.37919L50.9537 3.64483C50.9945 3.54161 51.0638 3.44712 51.1586 3.37484L52.3711 4.96539ZM52.8129 4.38203L53.9121 1.62228L52.054 0.882238L50.9548 3.64199L52.8129 4.38203ZM53.8937 1.6655C53.9037 1.64344 53.8848 1.68682 53.8628 1.72698C53.8354 1.77706 53.7724 1.88299 53.6574 1.98661C53.3877 2.22946 53.0884 2.24068 52.9987 2.24068V0.240684C52.8983 0.240684 52.5929 0.253759 52.319 0.500433C52.2018 0.605955 52.1371 0.714293 52.1081 0.767284C52.0846 0.810344 52.0642 0.857145 52.0724 0.839013L53.8937 1.6655ZM52.9987 2.24068C52.909 2.24068 52.6096 2.22946 52.34 1.98662C52.2249 1.88302 52.1619 1.77708 52.1345 1.727C52.1125 1.68683 52.0937 1.64345 52.1037 1.6655L53.9249 0.839013C53.9331 0.857134 53.9128 0.810334 53.8892 0.767264C53.8602 0.714267 53.7955 0.605932 53.6783 0.500415C53.4044 0.253761 53.0991 0.240684 52.9987 0.240684V2.24068ZM52.0856 1.62306L53.1874 4.38281L55.0449 3.64121L53.943 0.88146L52.0856 1.62306ZM53.1871 4.38204C53.2785 4.61149 53.4312 4.81524 53.6329 4.96768L54.8389 3.37217C54.9342 3.44422 55.004 3.53867 55.0452 3.64198L53.1871 4.38204ZM53.6329 4.96768C53.8349 5.12038 54.0774 5.21481 54.334 5.2363L54.501 3.24328C54.6264 3.25378 54.7432 3.29985 54.8389 3.37217L53.6329 4.96768ZM54.3341 5.2363L57.1879 5.4752L57.3547 3.48217L54.5009 3.24328L54.3341 5.2363ZM57.2713 5.47868C57.3446 5.47868 57.001 5.51076 56.6975 5.29343C56.4111 5.08839 56.3359 4.80511 56.328 4.77882L58.244 4.20539C58.2321 4.16568 58.1529 3.87569 57.8618 3.66729C57.7019 3.55279 57.5412 3.50772 57.426 3.49023C57.3736 3.48227 57.3312 3.4801 57.3082 3.4793C57.2961 3.47889 57.2864 3.47877 57.2807 3.47872C57.2778 3.47869 57.2754 3.47869 57.2739 3.47868C57.2725 3.47868 57.2713 3.47868 57.2713 3.47868V5.47868ZM56.328 4.77882C56.2989 4.68154 56.2411 4.4316 56.3566 4.13944C56.4721 3.84712 56.6872 3.70708 56.735 3.67609L57.8227 5.35442C57.8777 5.3188 58.0983 5.1739 58.2166 4.87452C58.3349 4.5753 58.2772 4.3161 58.244 4.20539L56.328 4.77882Z" fill="black" mask="url(#path-5-inside-1_125_338)"/>
<defs>
<filter id="filter0_d_125_338" x="32" y="0.5" width="18" height="18" filterUnits="userSpaceOnUse" color-interpolation-filters="sRGB">
<feFlood flood-opacity="0" result="BackgroundImageFix"/>
<feColorMatrix in="SourceAlpha" type="matrix" values="0 0 0 0 0 0 0 0 0 0 0 0 0 0 0 0 0 0 127 0" result="hardAlpha"/>
<feOffset dy="4"/>
<feGaussianBlur stdDeviation="2"/>
<feComposite in2="hardAlpha" operator="out"/>
<feColorMatrix type="matrix" values="0 0 0 0 0 0 0 0 0 0 0 0 0 0 0 0 0 0 0.25 0"/>
<feBlend mode="normal" in2="BackgroundImageFix" result="effect1_dropShadow_125_338"/>
<feBlend mode="normal" in="SourceGraphic" in2="effect1_dropShadow_125_338" result="shape"/>
</filter>
</defs>
</svg>
