<svg width="23" height="22" viewBox="0 0 23 22" fill="none" xmlns="http://www.w3.org/2000/svg">
<path fill-rule="evenodd" clip-rule="evenodd" d="M15.375 8C15.375 9.06087 14.9536 10.0783 14.2034 10.8284C13.4533 11.5786 12.4359 12 11.375 12C10.3141 12 9.29672 11.5786 8.54657 10.8284C7.79643 10.0783 7.375 9.06087 7.375 8C7.375 6.93913 7.79643 5.92172 8.54657 5.17157C9.29672 4.42143 10.3141 4 11.375 4C12.4359 4 13.4533 4.42143 14.2034 5.17157C14.9536 5.92172 15.375 6.93913 15.375 8ZM13.375 8C13.375 8.53043 13.1643 9.03914 12.7892 9.41421C12.4141 9.78929 11.9054 10 11.375 10C10.8446 10 10.3359 9.78929 9.96079 9.41421C9.58571 9.03914 9.375 8.53043 9.375 8C9.375 7.46957 9.58571 6.96086 9.96079 6.58579C10.3359 6.21071 10.8446 6 11.375 6C11.9054 6 12.4141 6.21071 12.7892 6.58579C13.1643 6.96086 13.375 7.46957 13.375 8Z" fill="#B3B3B3"/>
<path fill-rule="evenodd" clip-rule="evenodd" d="M11.375 0C5.3 0 0.375 4.925 0.375 11C0.375 17.075 5.3 22 11.375 22C17.45 22 22.375 17.075 22.375 11C22.375 4.925 17.45 0 11.375 0ZM2.375 11C2.375 13.09 3.088 15.014 4.283 16.542C5.12244 15.4401 6.20515 14.5471 7.44664 13.9327C8.68812 13.3183 10.0548 12.9991 11.44 13C12.8074 12.9984 14.1571 13.3091 15.3861 13.9084C16.6152 14.5077 17.6912 15.3797 18.532 16.458C19.3984 15.3216 19.9818 13.9952 20.2339 12.5886C20.486 11.182 20.3994 9.73553 19.9815 8.36898C19.5636 7.00243 18.8262 5.75505 17.8305 4.73004C16.8348 3.70503 15.6093 2.93186 14.2554 2.47451C12.9015 2.01716 11.4582 1.88877 10.0449 2.09997C8.63152 2.31117 7.28879 2.85589 6.12777 3.68905C4.96675 4.52222 4.02081 5.61987 3.36823 6.8912C2.71565 8.16252 2.37518 9.57097 2.375 11ZM11.375 20C9.30891 20.0033 7.30514 19.2926 5.703 17.988C6.34781 17.0646 7.20619 16.3107 8.20508 15.7905C9.20396 15.2702 10.3138 14.999 11.44 15C12.5522 14.999 13.6485 15.2635 14.638 15.7713C15.6274 16.2792 16.4814 17.0158 17.129 17.92C15.5145 19.267 13.4776 20.0033 11.375 20Z" fill="#B3B3B3"/>
</svg>
