<svg width="16" height="17" viewBox="0 0 16 17" fill="none" xmlns="http://www.w3.org/2000/svg">
<path d="M11.125 3C9.83438 3 8.70438 3.555 8 4.49312C7.29562 3.555 6.16563 3 4.875 3C3.84764 3.00116 2.86269 3.40979 2.13624 4.13624C1.40979 4.86269 1.00116 5.84764 1 6.875C1 11.25 7.48688 14.7913 7.76312 14.9375C7.83594 14.9767 7.91732 14.9972 8 14.9972C8.08268 14.9972 8.16406 14.9767 8.23687 14.9375C8.51312 14.7913 15 11.25 15 6.875C14.9988 5.84764 14.5902 4.86269 13.8638 4.13624C13.1373 3.40979 12.1524 3.00116 11.125 3ZM8 13.925C6.85875 13.26 2 10.2306 2 6.875C2.00099 6.11281 2.30421 5.38212 2.84316 4.84316C3.38212 4.30421 4.11281 4.00099 4.875 4C6.09062 4 7.11125 4.6475 7.5375 5.6875C7.57517 5.77921 7.63925 5.85764 7.7216 5.91284C7.80396 5.96804 7.90086 5.99752 8 5.99752C8.09914 5.99752 8.19604 5.96804 8.2784 5.91284C8.36075 5.85764 8.42483 5.77921 8.4625 5.6875C8.88875 4.64562 9.90938 4 11.125 4C11.8872 4.00099 12.6179 4.30421 13.1568 4.84316C13.6958 5.38212 13.999 6.11281 14 6.875C14 10.2256 9.14 13.2594 8 13.925Z" fill="black"/>
</svg>
