<svg width="20" height="20" viewBox="0 0 20 20" fill="none" xmlns="http://www.w3.org/2000/svg">
<path fill-rule="evenodd" clip-rule="evenodd" d="M14.136 14.9974C12.8155 16.1215 11.1038 16.8 9.23366 16.8C5.0547 16.8 1.66699 13.4123 1.66699 9.23332C1.66699 5.05437 5.0547 1.66666 9.23366 1.66666C13.4126 1.66666 16.8003 5.05437 16.8003 9.23332C16.8003 11.0921 16.1301 12.7944 15.018 14.1116L18.65 17.7437L17.7662 18.6275L14.136 14.9974ZM15.5503 9.23332C15.5503 12.7219 12.7223 15.55 9.23366 15.55C5.74506 15.55 2.91699 12.7219 2.91699 9.23332C2.91699 5.74472 5.74506 2.91666 9.23366 2.91666C12.7223 2.91666 15.5503 5.74472 15.5503 9.23332Z" fill="white"/>
</svg>
