<svg width="25" height="25" viewBox="0 0 25 25" fill="none" xmlns="http://www.w3.org/2000/svg">
<rect y="0.249573" width="25.001" height="24.5008" rx="4" fill="black"/>
<path d="M16.7812 19.4694C16.8509 19.539 16.9062 19.6218 16.9439 19.7128C16.9816 19.8039 17.001 19.9014 17.001 20C17.001 20.0985 16.9816 20.1961 16.9439 20.2872C16.9062 20.3782 16.8509 20.4609 16.7812 20.5306C16.7115 20.6003 16.6288 20.6556 16.5378 20.6933C16.4467 20.731 16.3491 20.7504 16.2506 20.7504C16.152 20.7504 16.0545 20.731 15.9634 20.6933C15.8724 20.6556 15.7896 20.6003 15.72 20.5306L8.21996 13.0306C8.15023 12.961 8.09491 12.8782 8.05717 12.7872C8.01943 12.6961 8 12.5986 8 12.5C8 12.4014 8.01943 12.3038 8.05717 12.2128C8.09491 12.1217 8.15023 12.039 8.21996 11.9694L15.72 4.46936C15.8607 4.32863 16.0516 4.24957 16.2506 4.24957C16.4496 4.24957 16.6405 4.32863 16.7812 4.46936C16.9219 4.6101 17.001 4.80097 17.001 4.99999C17.001 5.19901 16.9219 5.38988 16.7812 5.53061L9.8109 12.5L16.7812 19.4694Z" fill="white"/>
</svg>
