<svg width="16" height="17" viewBox="0 0 16 17" fill="none" xmlns="http://www.w3.org/2000/svg">
<path d="M14.3537 7.35375L11.3537 10.3538C11.2599 10.4476 11.1327 10.5003 11 10.5003C10.8673 10.5003 10.7401 10.4476 10.6462 10.3538C10.5524 10.2599 10.4997 10.1327 10.4997 10C10.4997 9.86732 10.5524 9.74007 10.6462 9.64625L12.7931 7.5H10.3125C9.09291 7.49966 7.9078 7.90469 6.94353 8.6514C5.97926 9.39811 5.29052 10.4441 4.98562 11.625C4.95247 11.7535 4.86965 11.8635 4.75537 11.9309C4.64109 11.9983 4.50471 12.0175 4.37625 11.9844C4.24779 11.9512 4.13775 11.8684 4.07036 11.7541C4.00296 11.6398 3.98372 11.5035 4.01687 11.375C4.37663 9.97908 5.19047 8.74247 6.33024 7.85989C7.47001 6.97731 8.87097 6.49891 10.3125 6.5H12.7944L10.6462 4.35375C10.5998 4.30729 10.5629 4.25214 10.5378 4.19145C10.5127 4.13075 10.4997 4.0657 10.4997 4C10.4997 3.9343 10.5127 3.86925 10.5378 3.80855C10.5629 3.74785 10.5998 3.6927 10.6462 3.64625C10.7401 3.55243 10.8673 3.49972 11 3.49972C11.0657 3.49972 11.1308 3.51266 11.1914 3.5378C11.2521 3.56294 11.3073 3.59979 11.3537 3.64625L14.3537 6.64625C14.4002 6.69269 14.4371 6.74783 14.4623 6.80853C14.4874 6.86923 14.5004 6.93429 14.5004 7C14.5004 7.06571 14.4874 7.13077 14.4623 7.19147C14.4371 7.25217 14.4002 7.30731 14.3537 7.35375ZM12 13.5H2.5V6C2.5 5.86739 2.44732 5.74021 2.35355 5.64645C2.25979 5.55268 2.13261 5.5 2 5.5C1.86739 5.5 1.74021 5.55268 1.64645 5.64645C1.55268 5.74021 1.5 5.86739 1.5 6V14C1.5 14.1326 1.55268 14.2598 1.64645 14.3536C1.74021 14.4473 1.86739 14.5 2 14.5H12C12.1326 14.5 12.2598 14.4473 12.3536 14.3536C12.4473 14.2598 12.5 14.1326 12.5 14C12.5 13.8674 12.4473 13.7402 12.3536 13.6464C12.2598 13.5527 12.1326 13.5 12 13.5Z" fill="black"/>
</svg>
