<svg width="360" height="24" viewBox="0 0 360 24" fill="none" xmlns="http://www.w3.org/2000/svg">
<rect width="360" height="24" fill="white"/>
<path d="M321.73 7.0127V17H320.083V8.96777L317.643 9.79492V8.43457L321.532 7.0127H321.73ZM331.861 15.6875V17H325.189V15.8721L328.43 12.3379C328.785 11.9368 329.065 11.5905 329.271 11.2988C329.476 11.0072 329.619 10.7451 329.701 10.5127C329.788 10.2757 329.831 10.0456 329.831 9.82227C329.831 9.50781 329.772 9.2321 329.653 8.99512C329.539 8.75358 329.371 8.56445 329.147 8.42773C328.924 8.28646 328.653 8.21582 328.334 8.21582C327.965 8.21582 327.655 8.29557 327.404 8.45508C327.154 8.61458 326.965 8.83561 326.837 9.11816C326.709 9.39616 326.646 9.71517 326.646 10.0752H324.998C324.998 9.49642 325.13 8.96777 325.395 8.48926C325.659 8.00618 326.042 7.62337 326.543 7.34082C327.044 7.05371 327.648 6.91016 328.354 6.91016C329.02 6.91016 329.585 7.02181 330.05 7.24512C330.515 7.46842 330.868 7.78516 331.109 8.19531C331.355 8.60547 331.479 9.09082 331.479 9.65137C331.479 9.96126 331.428 10.2689 331.328 10.5742C331.228 10.8796 331.084 11.1849 330.897 11.4902C330.715 11.791 330.499 12.0941 330.248 12.3994C329.997 12.7002 329.722 13.0055 329.421 13.3154L327.268 15.6875H331.861ZM333.263 16.1797C333.263 15.9245 333.349 15.7103 333.522 15.5371C333.696 15.3594 333.93 15.2705 334.227 15.2705C334.527 15.2705 334.762 15.3594 334.931 15.5371C335.104 15.7103 335.19 15.9245 335.19 16.1797C335.19 16.4349 335.104 16.6491 334.931 16.8223C334.762 16.9954 334.527 17.082 334.227 17.082C333.93 17.082 333.696 16.9954 333.522 16.8223C333.349 16.6491 333.263 16.4349 333.263 16.1797ZM333.27 10.3555C333.27 10.1003 333.356 9.88607 333.529 9.71289C333.702 9.53516 333.937 9.44629 334.233 9.44629C334.534 9.44629 334.769 9.53516 334.938 9.71289C335.111 9.88607 335.197 10.1003 335.197 10.3555C335.197 10.6107 335.111 10.8249 334.938 10.998C334.769 11.1712 334.534 11.2578 334.233 11.2578C333.937 11.2578 333.702 11.1712 333.529 10.998C333.356 10.8249 333.27 10.6107 333.27 10.3555ZM338.772 11.2783H339.757C340.14 11.2783 340.456 11.2122 340.707 11.0801C340.962 10.9479 341.151 10.7656 341.274 10.5332C341.397 10.3008 341.459 10.0342 341.459 9.7334C341.459 9.41895 341.402 9.15007 341.288 8.92676C341.179 8.69889 341.01 8.52344 340.782 8.40039C340.559 8.27734 340.274 8.21582 339.928 8.21582C339.636 8.21582 339.372 8.27507 339.135 8.39355C338.902 8.50749 338.718 8.67155 338.581 8.88574C338.444 9.09538 338.376 9.34603 338.376 9.6377H336.722C336.722 9.10905 336.861 8.63965 337.139 8.22949C337.417 7.81934 337.795 7.49805 338.273 7.26562C338.757 7.02865 339.299 6.91016 339.9 6.91016C340.543 6.91016 341.104 7.01725 341.582 7.23145C342.065 7.44108 342.441 7.75553 342.71 8.1748C342.979 8.59408 343.113 9.11361 343.113 9.7334C343.113 10.016 343.047 10.3031 342.915 10.5947C342.783 10.8864 342.587 11.153 342.327 11.3945C342.067 11.6315 341.744 11.8252 341.356 11.9756C340.969 12.1214 340.52 12.1943 340.01 12.1943H338.772V11.2783ZM338.772 12.5635V11.6611H340.01C340.593 11.6611 341.09 11.7295 341.5 11.8662C341.915 12.0029 342.252 12.1921 342.512 12.4336C342.771 12.6706 342.961 12.9417 343.079 13.2471C343.202 13.5524 343.264 13.876 343.264 14.2178C343.264 14.6826 343.179 15.0973 343.011 15.4619C342.847 15.8219 342.612 16.1273 342.307 16.3779C342.001 16.6286 341.644 16.8177 341.233 16.9453C340.828 17.0729 340.386 17.1367 339.907 17.1367C339.479 17.1367 339.069 17.0775 338.677 16.959C338.285 16.8405 337.934 16.665 337.624 16.4326C337.314 16.1956 337.068 15.9017 336.886 15.5508C336.708 15.1953 336.619 14.7852 336.619 14.3203H338.267C338.267 14.6165 338.335 14.8786 338.472 15.1064C338.613 15.3298 338.809 15.5052 339.06 15.6328C339.315 15.7604 339.606 15.8242 339.935 15.8242C340.281 15.8242 340.579 15.7627 340.83 15.6396C341.081 15.5166 341.272 15.3343 341.404 15.0928C341.541 14.8512 341.609 14.5596 341.609 14.2178C341.609 13.8304 341.534 13.516 341.384 13.2744C341.233 13.0329 341.019 12.8551 340.741 12.7412C340.463 12.6227 340.135 12.5635 339.757 12.5635H338.772ZM351.282 11.1895V12.8164C351.282 13.5957 351.205 14.2611 351.05 14.8125C350.899 15.3594 350.681 15.8037 350.394 16.1455C350.106 16.4873 349.762 16.738 349.361 16.8975C348.965 17.057 348.521 17.1367 348.028 17.1367C347.636 17.1367 347.272 17.0866 346.935 16.9863C346.602 16.8861 346.301 16.7288 346.032 16.5146C345.763 16.3005 345.533 16.0247 345.342 15.6875C345.155 15.3457 345.009 14.9378 344.904 14.4639C344.804 13.9899 344.754 13.4408 344.754 12.8164V11.1895C344.754 10.4056 344.831 9.74479 344.986 9.20703C345.141 8.66471 345.362 8.22493 345.649 7.8877C345.937 7.5459 346.278 7.29753 346.675 7.14258C347.076 6.98763 347.522 6.91016 348.015 6.91016C348.411 6.91016 348.776 6.96029 349.108 7.06055C349.446 7.15625 349.746 7.30892 350.011 7.51855C350.28 7.72819 350.507 8.00163 350.694 8.33887C350.886 8.67155 351.032 9.07487 351.132 9.54883C351.232 10.0182 351.282 10.5651 351.282 11.1895ZM349.635 13.0488V10.9434C349.635 10.5469 349.612 10.1982 349.566 9.89746C349.521 9.59212 349.452 9.33464 349.361 9.125C349.275 8.91081 349.165 8.73763 349.033 8.60547C348.901 8.46875 348.751 8.37077 348.582 8.31152C348.413 8.24772 348.224 8.21582 348.015 8.21582C347.759 8.21582 347.532 8.26595 347.331 8.36621C347.131 8.46191 346.962 8.61686 346.825 8.83105C346.688 9.04525 346.584 9.3278 346.511 9.67871C346.442 10.0251 346.408 10.4466 346.408 10.9434V13.0488C346.408 13.4499 346.431 13.8031 346.477 14.1084C346.522 14.4137 346.59 14.6758 346.682 14.8945C346.773 15.1087 346.882 15.2865 347.01 15.4277C347.142 15.5645 347.292 15.6647 347.461 15.7285C347.634 15.7923 347.823 15.8242 348.028 15.8242C348.288 15.8242 348.518 15.7741 348.719 15.6738C348.919 15.5736 349.088 15.4141 349.225 15.1953C349.361 14.972 349.464 14.6826 349.532 14.3271C349.601 13.9717 349.635 13.5456 349.635 13.0488Z" fill="black" fill-opacity="0.7"/>
<path d="M321.73 7.0127V17H320.083V8.96777L317.643 9.79492V8.43457L321.532 7.0127H321.73ZM331.861 15.6875V17H325.189V15.8721L328.43 12.3379C328.785 11.9368 329.065 11.5905 329.271 11.2988C329.476 11.0072 329.619 10.7451 329.701 10.5127C329.788 10.2757 329.831 10.0456 329.831 9.82227C329.831 9.50781 329.772 9.2321 329.653 8.99512C329.539 8.75358 329.371 8.56445 329.147 8.42773C328.924 8.28646 328.653 8.21582 328.334 8.21582C327.965 8.21582 327.655 8.29557 327.404 8.45508C327.154 8.61458 326.965 8.83561 326.837 9.11816C326.709 9.39616 326.646 9.71517 326.646 10.0752H324.998C324.998 9.49642 325.13 8.96777 325.395 8.48926C325.659 8.00618 326.042 7.62337 326.543 7.34082C327.044 7.05371 327.648 6.91016 328.354 6.91016C329.02 6.91016 329.585 7.02181 330.05 7.24512C330.515 7.46842 330.868 7.78516 331.109 8.19531C331.355 8.60547 331.479 9.09082 331.479 9.65137C331.479 9.96126 331.428 10.2689 331.328 10.5742C331.228 10.8796 331.084 11.1849 330.897 11.4902C330.715 11.791 330.499 12.0941 330.248 12.3994C329.997 12.7002 329.722 13.0055 329.421 13.3154L327.268 15.6875H331.861ZM333.263 16.1797C333.263 15.9245 333.349 15.7103 333.522 15.5371C333.696 15.3594 333.93 15.2705 334.227 15.2705C334.527 15.2705 334.762 15.3594 334.931 15.5371C335.104 15.7103 335.19 15.9245 335.19 16.1797C335.19 16.4349 335.104 16.6491 334.931 16.8223C334.762 16.9954 334.527 17.082 334.227 17.082C333.93 17.082 333.696 16.9954 333.522 16.8223C333.349 16.6491 333.263 16.4349 333.263 16.1797ZM333.27 10.3555C333.27 10.1003 333.356 9.88607 333.529 9.71289C333.702 9.53516 333.937 9.44629 334.233 9.44629C334.534 9.44629 334.769 9.53516 334.938 9.71289C335.111 9.88607 335.197 10.1003 335.197 10.3555C335.197 10.6107 335.111 10.8249 334.938 10.998C334.769 11.1712 334.534 11.2578 334.233 11.2578C333.937 11.2578 333.702 11.1712 333.529 10.998C333.356 10.8249 333.27 10.6107 333.27 10.3555ZM338.772 11.2783H339.757C340.14 11.2783 340.456 11.2122 340.707 11.0801C340.962 10.9479 341.151 10.7656 341.274 10.5332C341.397 10.3008 341.459 10.0342 341.459 9.7334C341.459 9.41895 341.402 9.15007 341.288 8.92676C341.179 8.69889 341.01 8.52344 340.782 8.40039C340.559 8.27734 340.274 8.21582 339.928 8.21582C339.636 8.21582 339.372 8.27507 339.135 8.39355C338.902 8.50749 338.718 8.67155 338.581 8.88574C338.444 9.09538 338.376 9.34603 338.376 9.6377H336.722C336.722 9.10905 336.861 8.63965 337.139 8.22949C337.417 7.81934 337.795 7.49805 338.273 7.26562C338.757 7.02865 339.299 6.91016 339.9 6.91016C340.543 6.91016 341.104 7.01725 341.582 7.23145C342.065 7.44108 342.441 7.75553 342.71 8.1748C342.979 8.59408 343.113 9.11361 343.113 9.7334C343.113 10.016 343.047 10.3031 342.915 10.5947C342.783 10.8864 342.587 11.153 342.327 11.3945C342.067 11.6315 341.744 11.8252 341.356 11.9756C340.969 12.1214 340.52 12.1943 340.01 12.1943H338.772V11.2783ZM338.772 12.5635V11.6611H340.01C340.593 11.6611 341.09 11.7295 341.5 11.8662C341.915 12.0029 342.252 12.1921 342.512 12.4336C342.771 12.6706 342.961 12.9417 343.079 13.2471C343.202 13.5524 343.264 13.876 343.264 14.2178C343.264 14.6826 343.179 15.0973 343.011 15.4619C342.847 15.8219 342.612 16.1273 342.307 16.3779C342.001 16.6286 341.644 16.8177 341.233 16.9453C340.828 17.0729 340.386 17.1367 339.907 17.1367C339.479 17.1367 339.069 17.0775 338.677 16.959C338.285 16.8405 337.934 16.665 337.624 16.4326C337.314 16.1956 337.068 15.9017 336.886 15.5508C336.708 15.1953 336.619 14.7852 336.619 14.3203H338.267C338.267 14.6165 338.335 14.8786 338.472 15.1064C338.613 15.3298 338.809 15.5052 339.06 15.6328C339.315 15.7604 339.606 15.8242 339.935 15.8242C340.281 15.8242 340.579 15.7627 340.83 15.6396C341.081 15.5166 341.272 15.3343 341.404 15.0928C341.541 14.8512 341.609 14.5596 341.609 14.2178C341.609 13.8304 341.534 13.516 341.384 13.2744C341.233 13.0329 341.019 12.8551 340.741 12.7412C340.463 12.6227 340.135 12.5635 339.757 12.5635H338.772ZM351.282 11.1895V12.8164C351.282 13.5957 351.205 14.2611 351.05 14.8125C350.899 15.3594 350.681 15.8037 350.394 16.1455C350.106 16.4873 349.762 16.738 349.361 16.8975C348.965 17.057 348.521 17.1367 348.028 17.1367C347.636 17.1367 347.272 17.0866 346.935 16.9863C346.602 16.8861 346.301 16.7288 346.032 16.5146C345.763 16.3005 345.533 16.0247 345.342 15.6875C345.155 15.3457 345.009 14.9378 344.904 14.4639C344.804 13.9899 344.754 13.4408 344.754 12.8164V11.1895C344.754 10.4056 344.831 9.74479 344.986 9.20703C345.141 8.66471 345.362 8.22493 345.649 7.8877C345.937 7.5459 346.278 7.29753 346.675 7.14258C347.076 6.98763 347.522 6.91016 348.015 6.91016C348.411 6.91016 348.776 6.96029 349.108 7.06055C349.446 7.15625 349.746 7.30892 350.011 7.51855C350.28 7.72819 350.507 8.00163 350.694 8.33887C350.886 8.67155 351.032 9.07487 351.132 9.54883C351.232 10.0182 351.282 10.5651 351.282 11.1895ZM349.635 13.0488V10.9434C349.635 10.5469 349.612 10.1982 349.566 9.89746C349.521 9.59212 349.452 9.33464 349.361 9.125C349.275 8.91081 349.165 8.73763 349.033 8.60547C348.901 8.46875 348.751 8.37077 348.582 8.31152C348.413 8.24772 348.224 8.21582 348.015 8.21582C347.759 8.21582 347.532 8.26595 347.331 8.36621C347.131 8.46191 346.962 8.61686 346.825 8.83105C346.688 9.04525 346.584 9.3278 346.511 9.67871C346.442 10.0251 346.408 10.4466 346.408 10.9434V13.0488C346.408 13.4499 346.431 13.8031 346.477 14.1084C346.522 14.4137 346.59 14.6758 346.682 14.8945C346.773 15.1087 346.882 15.2865 347.01 15.4277C347.142 15.5645 347.292 15.6647 347.461 15.7285C347.634 15.7923 347.823 15.8242 348.028 15.8242C348.288 15.8242 348.518 15.7741 348.719 15.6738C348.919 15.5736 349.088 15.4141 349.225 15.1953C349.361 14.972 349.464 14.6826 349.532 14.3271C349.601 13.9717 349.635 13.5456 349.635 13.0488Z" fill="black" fill-opacity="0.7"/>
<path d="M321.73 7.0127V17H320.083V8.96777L317.643 9.79492V8.43457L321.532 7.0127H321.73ZM331.861 15.6875V17H325.189V15.8721L328.43 12.3379C328.785 11.9368 329.065 11.5905 329.271 11.2988C329.476 11.0072 329.619 10.7451 329.701 10.5127C329.788 10.2757 329.831 10.0456 329.831 9.82227C329.831 9.50781 329.772 9.2321 329.653 8.99512C329.539 8.75358 329.371 8.56445 329.147 8.42773C328.924 8.28646 328.653 8.21582 328.334 8.21582C327.965 8.21582 327.655 8.29557 327.404 8.45508C327.154 8.61458 326.965 8.83561 326.837 9.11816C326.709 9.39616 326.646 9.71517 326.646 10.0752H324.998C324.998 9.49642 325.13 8.96777 325.395 8.48926C325.659 8.00618 326.042 7.62337 326.543 7.34082C327.044 7.05371 327.648 6.91016 328.354 6.91016C329.02 6.91016 329.585 7.02181 330.05 7.24512C330.515 7.46842 330.868 7.78516 331.109 8.19531C331.355 8.60547 331.479 9.09082 331.479 9.65137C331.479 9.96126 331.428 10.2689 331.328 10.5742C331.228 10.8796 331.084 11.1849 330.897 11.4902C330.715 11.791 330.499 12.0941 330.248 12.3994C329.997 12.7002 329.722 13.0055 329.421 13.3154L327.268 15.6875H331.861ZM333.263 16.1797C333.263 15.9245 333.349 15.7103 333.522 15.5371C333.696 15.3594 333.93 15.2705 334.227 15.2705C334.527 15.2705 334.762 15.3594 334.931 15.5371C335.104 15.7103 335.19 15.9245 335.19 16.1797C335.19 16.4349 335.104 16.6491 334.931 16.8223C334.762 16.9954 334.527 17.082 334.227 17.082C333.93 17.082 333.696 16.9954 333.522 16.8223C333.349 16.6491 333.263 16.4349 333.263 16.1797ZM333.27 10.3555C333.27 10.1003 333.356 9.88607 333.529 9.71289C333.702 9.53516 333.937 9.44629 334.233 9.44629C334.534 9.44629 334.769 9.53516 334.938 9.71289C335.111 9.88607 335.197 10.1003 335.197 10.3555C335.197 10.6107 335.111 10.8249 334.938 10.998C334.769 11.1712 334.534 11.2578 334.233 11.2578C333.937 11.2578 333.702 11.1712 333.529 10.998C333.356 10.8249 333.27 10.6107 333.27 10.3555ZM338.772 11.2783H339.757C340.14 11.2783 340.456 11.2122 340.707 11.0801C340.962 10.9479 341.151 10.7656 341.274 10.5332C341.397 10.3008 341.459 10.0342 341.459 9.7334C341.459 9.41895 341.402 9.15007 341.288 8.92676C341.179 8.69889 341.01 8.52344 340.782 8.40039C340.559 8.27734 340.274 8.21582 339.928 8.21582C339.636 8.21582 339.372 8.27507 339.135 8.39355C338.902 8.50749 338.718 8.67155 338.581 8.88574C338.444 9.09538 338.376 9.34603 338.376 9.6377H336.722C336.722 9.10905 336.861 8.63965 337.139 8.22949C337.417 7.81934 337.795 7.49805 338.273 7.26562C338.757 7.02865 339.299 6.91016 339.9 6.91016C340.543 6.91016 341.104 7.01725 341.582 7.23145C342.065 7.44108 342.441 7.75553 342.71 8.1748C342.979 8.59408 343.113 9.11361 343.113 9.7334C343.113 10.016 343.047 10.3031 342.915 10.5947C342.783 10.8864 342.587 11.153 342.327 11.3945C342.067 11.6315 341.744 11.8252 341.356 11.9756C340.969 12.1214 340.52 12.1943 340.01 12.1943H338.772V11.2783ZM338.772 12.5635V11.6611H340.01C340.593 11.6611 341.09 11.7295 341.5 11.8662C341.915 12.0029 342.252 12.1921 342.512 12.4336C342.771 12.6706 342.961 12.9417 343.079 13.2471C343.202 13.5524 343.264 13.876 343.264 14.2178C343.264 14.6826 343.179 15.0973 343.011 15.4619C342.847 15.8219 342.612 16.1273 342.307 16.3779C342.001 16.6286 341.644 16.8177 341.233 16.9453C340.828 17.0729 340.386 17.1367 339.907 17.1367C339.479 17.1367 339.069 17.0775 338.677 16.959C338.285 16.8405 337.934 16.665 337.624 16.4326C337.314 16.1956 337.068 15.9017 336.886 15.5508C336.708 15.1953 336.619 14.7852 336.619 14.3203H338.267C338.267 14.6165 338.335 14.8786 338.472 15.1064C338.613 15.3298 338.809 15.5052 339.06 15.6328C339.315 15.7604 339.606 15.8242 339.935 15.8242C340.281 15.8242 340.579 15.7627 340.83 15.6396C341.081 15.5166 341.272 15.3343 341.404 15.0928C341.541 14.8512 341.609 14.5596 341.609 14.2178C341.609 13.8304 341.534 13.516 341.384 13.2744C341.233 13.0329 341.019 12.8551 340.741 12.7412C340.463 12.6227 340.135 12.5635 339.757 12.5635H338.772ZM351.282 11.1895V12.8164C351.282 13.5957 351.205 14.2611 351.05 14.8125C350.899 15.3594 350.681 15.8037 350.394 16.1455C350.106 16.4873 349.762 16.738 349.361 16.8975C348.965 17.057 348.521 17.1367 348.028 17.1367C347.636 17.1367 347.272 17.0866 346.935 16.9863C346.602 16.8861 346.301 16.7288 346.032 16.5146C345.763 16.3005 345.533 16.0247 345.342 15.6875C345.155 15.3457 345.009 14.9378 344.904 14.4639C344.804 13.9899 344.754 13.4408 344.754 12.8164V11.1895C344.754 10.4056 344.831 9.74479 344.986 9.20703C345.141 8.66471 345.362 8.22493 345.649 7.8877C345.937 7.5459 346.278 7.29753 346.675 7.14258C347.076 6.98763 347.522 6.91016 348.015 6.91016C348.411 6.91016 348.776 6.96029 349.108 7.06055C349.446 7.15625 349.746 7.30892 350.011 7.51855C350.28 7.72819 350.507 8.00163 350.694 8.33887C350.886 8.67155 351.032 9.07487 351.132 9.54883C351.232 10.0182 351.282 10.5651 351.282 11.1895ZM349.635 13.0488V10.9434C349.635 10.5469 349.612 10.1982 349.566 9.89746C349.521 9.59212 349.452 9.33464 349.361 9.125C349.275 8.91081 349.165 8.73763 349.033 8.60547C348.901 8.46875 348.751 8.37077 348.582 8.31152C348.413 8.24772 348.224 8.21582 348.015 8.21582C347.759 8.21582 347.532 8.26595 347.331 8.36621C347.131 8.46191 346.962 8.61686 346.825 8.83105C346.688 9.04525 346.584 9.3278 346.511 9.67871C346.442 10.0251 346.408 10.4466 346.408 10.9434V13.0488C346.408 13.4499 346.431 13.8031 346.477 14.1084C346.522 14.4137 346.59 14.6758 346.682 14.8945C346.773 15.1087 346.882 15.2865 347.01 15.4277C347.142 15.5645 347.292 15.6647 347.461 15.7285C347.634 15.7923 347.823 15.8242 348.028 15.8242C348.288 15.8242 348.518 15.7741 348.719 15.6738C348.919 15.5736 349.088 15.4141 349.225 15.1953C349.361 14.972 349.464 14.6826 349.532 14.3271C349.601 13.9717 349.635 13.5456 349.635 13.0488Z" fill="black" fill-opacity="0.7"/>
<path d="M321.73 7.0127V17H320.083V8.96777L317.643 9.79492V8.43457L321.532 7.0127H321.73ZM331.861 15.6875V17H325.189V15.8721L328.43 12.3379C328.785 11.9368 329.065 11.5905 329.271 11.2988C329.476 11.0072 329.619 10.7451 329.701 10.5127C329.788 10.2757 329.831 10.0456 329.831 9.82227C329.831 9.50781 329.772 9.2321 329.653 8.99512C329.539 8.75358 329.371 8.56445 329.147 8.42773C328.924 8.28646 328.653 8.21582 328.334 8.21582C327.965 8.21582 327.655 8.29557 327.404 8.45508C327.154 8.61458 326.965 8.83561 326.837 9.11816C326.709 9.39616 326.646 9.71517 326.646 10.0752H324.998C324.998 9.49642 325.13 8.96777 325.395 8.48926C325.659 8.00618 326.042 7.62337 326.543 7.34082C327.044 7.05371 327.648 6.91016 328.354 6.91016C329.02 6.91016 329.585 7.02181 330.05 7.24512C330.515 7.46842 330.868 7.78516 331.109 8.19531C331.355 8.60547 331.479 9.09082 331.479 9.65137C331.479 9.96126 331.428 10.2689 331.328 10.5742C331.228 10.8796 331.084 11.1849 330.897 11.4902C330.715 11.791 330.499 12.0941 330.248 12.3994C329.997 12.7002 329.722 13.0055 329.421 13.3154L327.268 15.6875H331.861ZM333.263 16.1797C333.263 15.9245 333.349 15.7103 333.522 15.5371C333.696 15.3594 333.93 15.2705 334.227 15.2705C334.527 15.2705 334.762 15.3594 334.931 15.5371C335.104 15.7103 335.19 15.9245 335.19 16.1797C335.19 16.4349 335.104 16.6491 334.931 16.8223C334.762 16.9954 334.527 17.082 334.227 17.082C333.93 17.082 333.696 16.9954 333.522 16.8223C333.349 16.6491 333.263 16.4349 333.263 16.1797ZM333.27 10.3555C333.27 10.1003 333.356 9.88607 333.529 9.71289C333.702 9.53516 333.937 9.44629 334.233 9.44629C334.534 9.44629 334.769 9.53516 334.938 9.71289C335.111 9.88607 335.197 10.1003 335.197 10.3555C335.197 10.6107 335.111 10.8249 334.938 10.998C334.769 11.1712 334.534 11.2578 334.233 11.2578C333.937 11.2578 333.702 11.1712 333.529 10.998C333.356 10.8249 333.27 10.6107 333.27 10.3555ZM338.772 11.2783H339.757C340.14 11.2783 340.456 11.2122 340.707 11.0801C340.962 10.9479 341.151 10.7656 341.274 10.5332C341.397 10.3008 341.459 10.0342 341.459 9.7334C341.459 9.41895 341.402 9.15007 341.288 8.92676C341.179 8.69889 341.01 8.52344 340.782 8.40039C340.559 8.27734 340.274 8.21582 339.928 8.21582C339.636 8.21582 339.372 8.27507 339.135 8.39355C338.902 8.50749 338.718 8.67155 338.581 8.88574C338.444 9.09538 338.376 9.34603 338.376 9.6377H336.722C336.722 9.10905 336.861 8.63965 337.139 8.22949C337.417 7.81934 337.795 7.49805 338.273 7.26562C338.757 7.02865 339.299 6.91016 339.9 6.91016C340.543 6.91016 341.104 7.01725 341.582 7.23145C342.065 7.44108 342.441 7.75553 342.71 8.1748C342.979 8.59408 343.113 9.11361 343.113 9.7334C343.113 10.016 343.047 10.3031 342.915 10.5947C342.783 10.8864 342.587 11.153 342.327 11.3945C342.067 11.6315 341.744 11.8252 341.356 11.9756C340.969 12.1214 340.52 12.1943 340.01 12.1943H338.772V11.2783ZM338.772 12.5635V11.6611H340.01C340.593 11.6611 341.09 11.7295 341.5 11.8662C341.915 12.0029 342.252 12.1921 342.512 12.4336C342.771 12.6706 342.961 12.9417 343.079 13.2471C343.202 13.5524 343.264 13.876 343.264 14.2178C343.264 14.6826 343.179 15.0973 343.011 15.4619C342.847 15.8219 342.612 16.1273 342.307 16.3779C342.001 16.6286 341.644 16.8177 341.233 16.9453C340.828 17.0729 340.386 17.1367 339.907 17.1367C339.479 17.1367 339.069 17.0775 338.677 16.959C338.285 16.8405 337.934 16.665 337.624 16.4326C337.314 16.1956 337.068 15.9017 336.886 15.5508C336.708 15.1953 336.619 14.7852 336.619 14.3203H338.267C338.267 14.6165 338.335 14.8786 338.472 15.1064C338.613 15.3298 338.809 15.5052 339.06 15.6328C339.315 15.7604 339.606 15.8242 339.935 15.8242C340.281 15.8242 340.579 15.7627 340.83 15.6396C341.081 15.5166 341.272 15.3343 341.404 15.0928C341.541 14.8512 341.609 14.5596 341.609 14.2178C341.609 13.8304 341.534 13.516 341.384 13.2744C341.233 13.0329 341.019 12.8551 340.741 12.7412C340.463 12.6227 340.135 12.5635 339.757 12.5635H338.772ZM351.282 11.1895V12.8164C351.282 13.5957 351.205 14.2611 351.05 14.8125C350.899 15.3594 350.681 15.8037 350.394 16.1455C350.106 16.4873 349.762 16.738 349.361 16.8975C348.965 17.057 348.521 17.1367 348.028 17.1367C347.636 17.1367 347.272 17.0866 346.935 16.9863C346.602 16.8861 346.301 16.7288 346.032 16.5146C345.763 16.3005 345.533 16.0247 345.342 15.6875C345.155 15.3457 345.009 14.9378 344.904 14.4639C344.804 13.9899 344.754 13.4408 344.754 12.8164V11.1895C344.754 10.4056 344.831 9.74479 344.986 9.20703C345.141 8.66471 345.362 8.22493 345.649 7.8877C345.937 7.5459 346.278 7.29753 346.675 7.14258C347.076 6.98763 347.522 6.91016 348.015 6.91016C348.411 6.91016 348.776 6.96029 349.108 7.06055C349.446 7.15625 349.746 7.30892 350.011 7.51855C350.28 7.72819 350.507 8.00163 350.694 8.33887C350.886 8.67155 351.032 9.07487 351.132 9.54883C351.232 10.0182 351.282 10.5651 351.282 11.1895ZM349.635 13.0488V10.9434C349.635 10.5469 349.612 10.1982 349.566 9.89746C349.521 9.59212 349.452 9.33464 349.361 9.125C349.275 8.91081 349.165 8.73763 349.033 8.60547C348.901 8.46875 348.751 8.37077 348.582 8.31152C348.413 8.24772 348.224 8.21582 348.015 8.21582C347.759 8.21582 347.532 8.26595 347.331 8.36621C347.131 8.46191 346.962 8.61686 346.825 8.83105C346.688 9.04525 346.584 9.3278 346.511 9.67871C346.442 10.0251 346.408 10.4466 346.408 10.9434V13.0488C346.408 13.4499 346.431 13.8031 346.477 14.1084C346.522 14.4137 346.59 14.6758 346.682 14.8945C346.773 15.1087 346.882 15.2865 347.01 15.4277C347.142 15.5645 347.292 15.6647 347.461 15.7285C347.634 15.7923 347.823 15.8242 348.028 15.8242C348.288 15.8242 348.518 15.7741 348.719 15.6738C348.919 15.5736 349.088 15.4141 349.225 15.1953C349.361 14.972 349.464 14.6826 349.532 14.3271C349.601 13.9717 349.635 13.5456 349.635 13.0488Z" fill="black" fill-opacity="0.7"/>
<path d="M321.73 7.0127V17H320.083V8.96777L317.643 9.79492V8.43457L321.532 7.0127H321.73ZM331.861 15.6875V17H325.189V15.8721L328.43 12.3379C328.785 11.9368 329.065 11.5905 329.271 11.2988C329.476 11.0072 329.619 10.7451 329.701 10.5127C329.788 10.2757 329.831 10.0456 329.831 9.82227C329.831 9.50781 329.772 9.2321 329.653 8.99512C329.539 8.75358 329.371 8.56445 329.147 8.42773C328.924 8.28646 328.653 8.21582 328.334 8.21582C327.965 8.21582 327.655 8.29557 327.404 8.45508C327.154 8.61458 326.965 8.83561 326.837 9.11816C326.709 9.39616 326.646 9.71517 326.646 10.0752H324.998C324.998 9.49642 325.13 8.96777 325.395 8.48926C325.659 8.00618 326.042 7.62337 326.543 7.34082C327.044 7.05371 327.648 6.91016 328.354 6.91016C329.02 6.91016 329.585 7.02181 330.05 7.24512C330.515 7.46842 330.868 7.78516 331.109 8.19531C331.355 8.60547 331.479 9.09082 331.479 9.65137C331.479 9.96126 331.428 10.2689 331.328 10.5742C331.228 10.8796 331.084 11.1849 330.897 11.4902C330.715 11.791 330.499 12.0941 330.248 12.3994C329.997 12.7002 329.722 13.0055 329.421 13.3154L327.268 15.6875H331.861ZM333.263 16.1797C333.263 15.9245 333.349 15.7103 333.522 15.5371C333.696 15.3594 333.93 15.2705 334.227 15.2705C334.527 15.2705 334.762 15.3594 334.931 15.5371C335.104 15.7103 335.19 15.9245 335.19 16.1797C335.19 16.4349 335.104 16.6491 334.931 16.8223C334.762 16.9954 334.527 17.082 334.227 17.082C333.93 17.082 333.696 16.9954 333.522 16.8223C333.349 16.6491 333.263 16.4349 333.263 16.1797ZM333.27 10.3555C333.27 10.1003 333.356 9.88607 333.529 9.71289C333.702 9.53516 333.937 9.44629 334.233 9.44629C334.534 9.44629 334.769 9.53516 334.938 9.71289C335.111 9.88607 335.197 10.1003 335.197 10.3555C335.197 10.6107 335.111 10.8249 334.938 10.998C334.769 11.1712 334.534 11.2578 334.233 11.2578C333.937 11.2578 333.702 11.1712 333.529 10.998C333.356 10.8249 333.27 10.6107 333.27 10.3555ZM338.772 11.2783H339.757C340.14 11.2783 340.456 11.2122 340.707 11.0801C340.962 10.9479 341.151 10.7656 341.274 10.5332C341.397 10.3008 341.459 10.0342 341.459 9.7334C341.459 9.41895 341.402 9.15007 341.288 8.92676C341.179 8.69889 341.01 8.52344 340.782 8.40039C340.559 8.27734 340.274 8.21582 339.928 8.21582C339.636 8.21582 339.372 8.27507 339.135 8.39355C338.902 8.50749 338.718 8.67155 338.581 8.88574C338.444 9.09538 338.376 9.34603 338.376 9.6377H336.722C336.722 9.10905 336.861 8.63965 337.139 8.22949C337.417 7.81934 337.795 7.49805 338.273 7.26562C338.757 7.02865 339.299 6.91016 339.9 6.91016C340.543 6.91016 341.104 7.01725 341.582 7.23145C342.065 7.44108 342.441 7.75553 342.71 8.1748C342.979 8.59408 343.113 9.11361 343.113 9.7334C343.113 10.016 343.047 10.3031 342.915 10.5947C342.783 10.8864 342.587 11.153 342.327 11.3945C342.067 11.6315 341.744 11.8252 341.356 11.9756C340.969 12.1214 340.52 12.1943 340.01 12.1943H338.772V11.2783ZM338.772 12.5635V11.6611H340.01C340.593 11.6611 341.09 11.7295 341.5 11.8662C341.915 12.0029 342.252 12.1921 342.512 12.4336C342.771 12.6706 342.961 12.9417 343.079 13.2471C343.202 13.5524 343.264 13.876 343.264 14.2178C343.264 14.6826 343.179 15.0973 343.011 15.4619C342.847 15.8219 342.612 16.1273 342.307 16.3779C342.001 16.6286 341.644 16.8177 341.233 16.9453C340.828 17.0729 340.386 17.1367 339.907 17.1367C339.479 17.1367 339.069 17.0775 338.677 16.959C338.285 16.8405 337.934 16.665 337.624 16.4326C337.314 16.1956 337.068 15.9017 336.886 15.5508C336.708 15.1953 336.619 14.7852 336.619 14.3203H338.267C338.267 14.6165 338.335 14.8786 338.472 15.1064C338.613 15.3298 338.809 15.5052 339.06 15.6328C339.315 15.7604 339.606 15.8242 339.935 15.8242C340.281 15.8242 340.579 15.7627 340.83 15.6396C341.081 15.5166 341.272 15.3343 341.404 15.0928C341.541 14.8512 341.609 14.5596 341.609 14.2178C341.609 13.8304 341.534 13.516 341.384 13.2744C341.233 13.0329 341.019 12.8551 340.741 12.7412C340.463 12.6227 340.135 12.5635 339.757 12.5635H338.772ZM351.282 11.1895V12.8164C351.282 13.5957 351.205 14.2611 351.05 14.8125C350.899 15.3594 350.681 15.8037 350.394 16.1455C350.106 16.4873 349.762 16.738 349.361 16.8975C348.965 17.057 348.521 17.1367 348.028 17.1367C347.636 17.1367 347.272 17.0866 346.935 16.9863C346.602 16.8861 346.301 16.7288 346.032 16.5146C345.763 16.3005 345.533 16.0247 345.342 15.6875C345.155 15.3457 345.009 14.9378 344.904 14.4639C344.804 13.9899 344.754 13.4408 344.754 12.8164V11.1895C344.754 10.4056 344.831 9.74479 344.986 9.20703C345.141 8.66471 345.362 8.22493 345.649 7.8877C345.937 7.5459 346.278 7.29753 346.675 7.14258C347.076 6.98763 347.522 6.91016 348.015 6.91016C348.411 6.91016 348.776 6.96029 349.108 7.06055C349.446 7.15625 349.746 7.30892 350.011 7.51855C350.28 7.72819 350.507 8.00163 350.694 8.33887C350.886 8.67155 351.032 9.07487 351.132 9.54883C351.232 10.0182 351.282 10.5651 351.282 11.1895ZM349.635 13.0488V10.9434C349.635 10.5469 349.612 10.1982 349.566 9.89746C349.521 9.59212 349.452 9.33464 349.361 9.125C349.275 8.91081 349.165 8.73763 349.033 8.60547C348.901 8.46875 348.751 8.37077 348.582 8.31152C348.413 8.24772 348.224 8.21582 348.015 8.21582C347.759 8.21582 347.532 8.26595 347.331 8.36621C347.131 8.46191 346.962 8.61686 346.825 8.83105C346.688 9.04525 346.584 9.3278 346.511 9.67871C346.442 10.0251 346.408 10.4466 346.408 10.9434V13.0488C346.408 13.4499 346.431 13.8031 346.477 14.1084C346.522 14.4137 346.59 14.6758 346.682 14.8945C346.773 15.1087 346.882 15.2865 347.01 15.4277C347.142 15.5645 347.292 15.6647 347.461 15.7285C347.634 15.7923 347.823 15.8242 348.028 15.8242C348.288 15.8242 348.518 15.7741 348.719 15.6738C348.919 15.5736 349.088 15.4141 349.225 15.1953C349.361 14.972 349.464 14.6826 349.532 14.3271C349.601 13.9717 349.635 13.5456 349.635 13.0488Z" fill="black" fill-opacity="0.7"/>
<path fill-rule="evenodd" clip-rule="evenodd" d="M306 5.875V5L303 5V5.875H300V19H309V5.875H306Z" fill="black" fill-opacity="0.7"/>
<path fill-rule="evenodd" clip-rule="evenodd" d="M277 19H291V5L277 19Z" fill="black" fill-opacity="0.7"/>
<path d="M256.978 8.01593L266 19L275.023 8.01593C272.512 6.12256 269.387 5 266 5C262.613 5 259.488 6.12256 256.978 8.01593Z" fill="black" fill-opacity="0.7"/>
</svg>
