<svg width="16" height="15" viewBox="0 0 16 15" fill="none" xmlns="http://www.w3.org/2000/svg">
<path d="M16 14.2498C16 14.4487 15.9352 14.6395 15.8198 14.7801C15.7044 14.9208 15.5478 14.9998 15.3846 14.9998C15.2214 14.9998 15.0649 14.9208 14.9495 14.7801C14.8341 14.6395 14.7693 14.4487 14.7693 14.2498C14.7672 12.0626 14.0534 9.96568 12.7844 8.41908C11.5154 6.87249 9.79488 6.00252 8.00024 6.00004H2.10119L4.74342 9.21933C4.85889 9.36005 4.92375 9.55092 4.92375 9.74994C4.92375 9.94895 4.85889 10.1398 4.74342 10.2805C4.62795 10.4213 4.47134 10.5003 4.30805 10.5003C4.14475 10.5003 3.98814 10.4213 3.87267 10.2805L0.180479 5.78067C0.123264 5.71102 0.0778752 5.6283 0.0469073 5.53726C0.0159395 5.44621 0 5.34862 0 5.25006C0 5.1515 0.0159395 5.05391 0.0469073 4.96286C0.0778752 4.87182 0.123264 4.7891 0.180479 4.71945L3.87267 0.219576C3.98814 0.0788495 4.14475 -0.00020981 4.30805 -0.000209808C4.47134 -0.000209807 4.62795 0.0788495 4.74342 0.219576C4.85889 0.360303 4.92375 0.551169 4.92375 0.750186C4.92375 0.949204 4.85889 1.14007 4.74342 1.2808L2.10119 4.50008H8.00024C10.1212 4.50281 12.1547 5.53089 13.6545 7.35873C15.1542 9.18656 15.9978 11.6649 16 14.2498Z" fill="black"/>
</svg>
