<svg width="400" height="336" viewBox="0 0 400 336" fill="none" xmlns="http://www.w3.org/2000/svg">
<g clip-path="url(#clip0_125_161)">
<path d="M462.222 140.934C512.777 147.933 497.777 363.066 415 403.667C332.222 444.268 127.777 437.521 127.777 384.066C127.777 330.612 205.555 303.8 264.444 285.6C323.333 267.4 327.112 214.189 353.333 190.867C381.666 165.666 411.666 133.935 462.222 140.934Z" fill="#D9D9D9"/>
<path fill-rule="evenodd" clip-rule="evenodd" d="M184.186 275.826L107.254 215.579L-12.8988 323.95L-22.6559 316.317L62.8421 239.203L31.3505 214.734L-15.1154 256.745L-24.8835 249.122L56.3272 175.697L-20.426 115.59L-20.6788 115.818L-30.4336 108.182L106.233 -15.0177L115.988 -7.38237L42.8186 58.577L79.9075 87.5063L149.779 24.2292L154.667 28.0374L84.7928 91.3168L119.614 118.478L215.495 31.7905L146.571 -22.032L155.65 -30.2349L224.57 23.5852L266.228 -14.0784L275.996 -6.45515L234.335 31.211L269.568 58.7242L339.782 -4.70667L344.664 -0.893388L274.45 62.5371L350.157 121.657L468.453 14.852L478.215 22.481L359.922 129.282L376.761 142.432C379.457 144.538 379.611 148.081 377.104 150.346C374.597 152.611 370.379 152.74 367.682 150.635L350.84 137.482L315.94 168.992C315.779 169.437 315.577 169.991 315.334 170.646C314.646 172.51 313.634 175.189 312.333 178.473C309.735 185.037 305.974 194.042 301.329 203.796C292.188 222.993 279.13 246.184 264.159 258.76C249.371 271.181 232.477 274.927 216.923 278.376L216.875 278.387C216.308 278.512 215.743 278.638 215.18 278.763C199.021 282.36 183.911 286.034 169.715 297.96L91.3813 363.76L81.9532 355.84L160.287 290.04C168.079 283.494 176.149 279.06 184.186 275.826ZM341.075 129.856L265.371 70.7393L232.36 100.561L308.001 159.718L341.075 129.856ZM301.594 170.01L290.577 161.394L182.404 259.118L197.879 271.237L197.804 271.305C202.557 270.002 207.234 268.945 211.765 267.937L212.661 267.737C228.748 264.16 242.521 261.096 254.731 250.84C267.538 240.082 279.758 218.94 288.95 199.637C293.471 190.141 297.141 181.354 299.682 174.939C300.417 173.082 301.057 171.425 301.594 170.01ZM285.698 157.578L224.568 109.77L143.663 182.741L205.222 230.28L285.698 157.578ZM227.481 96.7455L260.488 66.9264L225.26 39.4162L192.291 69.2245L227.481 96.7455ZM183.215 77.4297L214.809 102.138L190.817 123.778L159.487 98.8833L183.215 77.4297ZM154.949 102.986L186.273 127.876L131.119 177.621L99.5087 153.111L154.949 102.986ZM94.971 157.213L126.576 181.719L106.589 199.746L75.1551 175.129L94.971 157.213ZM66.0797 183.335L97.5019 207.942L71.9293 231.007L40.4258 206.529L66.0797 183.335ZM139.119 186.839L116.342 207.383L177.527 255.3L200.682 234.382L139.119 186.839ZM115.077 122.58L65.4026 167.492L12.2092 125.835L61.8407 81.0561L115.077 122.58ZM56.9554 77.2456L7.33293 122.016L-11.3363 107.396L38.2738 62.674L56.9554 77.2456Z" fill="white"/>
</g>
<defs>
<clipPath id="clip0_125_161">
<rect width="400" height="336" fill="white"/>
</clipPath>
</defs>
</svg>
