<svg width="59" height="10" viewBox="0 0 59 10" fill="none" xmlns="http://www.w3.org/2000/svg">
<path d="M5.41939 0.373003C5.60279 0.00138056 6.13272 0.00137994 6.31612 0.373003L7.51478 2.80174C7.58761 2.94931 7.72839 3.05159 7.89125 3.07526L10.5715 3.46472C10.9816 3.52432 11.1454 4.0283 10.8486 4.31757L8.90916 6.20808C8.79132 6.32295 8.73754 6.48845 8.76536 6.65064L9.22321 9.32008C9.29326 9.72853 8.86454 10.04 8.49773 9.84717L6.10043 8.58683C5.95476 8.51025 5.78075 8.51025 5.63509 8.58683L3.23778 9.84717C2.87097 10.04 2.44225 9.72853 2.51231 9.32008L2.97015 6.65064C2.99797 6.48845 2.94419 6.32295 2.82635 6.20808L0.886892 4.31757C0.590134 4.0283 0.753888 3.52432 1.164 3.46472L3.84427 3.07526C4.00712 3.05159 4.1479 2.94931 4.22074 2.80174L5.41939 0.373003ZM17.4194 0.373003C17.6028 0.00138056 18.1327 0.00137994 18.3161 0.373003L19.5148 2.80174C19.5876 2.94931 19.7284 3.05159 19.8912 3.07526L22.5715 3.46472C22.9816 3.52432 23.1454 4.0283 22.8486 4.31757L20.9092 6.20808C20.7913 6.32295 20.7375 6.48845 20.7654 6.65064L21.2232 9.32008C21.2933 9.72853 20.8645 10.04 20.4977 9.84717L18.1004 8.58683C17.9548 8.51025 17.7807 8.51025 17.6351 8.58683L15.2378 9.84717C14.871 10.04 14.4423 9.72853 14.5123 9.32008L14.9701 6.65064C14.998 6.48845 14.9442 6.32295 14.8264 6.20808L12.8869 4.31757C12.5901 4.0283 12.7539 3.52432 13.164 3.46472L15.8443 3.07526C16.0071 3.05159 16.1479 2.94931 16.2207 2.80174L17.4194 0.373003ZM29.4194 0.373003C29.6028 0.00138056 30.1327 0.00137994 30.3161 0.373003L31.5148 2.80174C31.5876 2.94931 31.7284 3.05159 31.8912 3.07526L34.5715 3.46472C34.9816 3.52432 35.1454 4.0283 34.8486 4.31757L32.9092 6.20808C32.7913 6.32295 32.7375 6.48845 32.7654 6.65064L33.2232 9.32008C33.2933 9.72853 32.8645 10.04 32.4977 9.84717L30.1004 8.58683C29.9548 8.51025 29.7807 8.51025 29.6351 8.58683L27.2378 9.84717C26.871 10.04 26.4423 9.72853 26.5123 9.32008L26.9701 6.65064C26.998 6.48845 26.9442 6.32295 26.8264 6.20808L24.8869 4.31757C24.5901 4.0283 24.7539 3.52432 25.164 3.46472L27.8443 3.07526C28.0071 3.05159 28.1479 2.94931 28.2207 2.80174L29.4194 0.373003ZM41.4194 0.373003C41.6028 0.00138056 42.1327 0.00137994 42.3161 0.373003L43.5148 2.80174C43.5876 2.94931 43.7284 3.05159 43.8912 3.07526L46.5715 3.46472C46.9816 3.52432 47.1454 4.0283 46.8486 4.31757L44.9092 6.20808C44.7913 6.32295 44.7375 6.48845 44.7654 6.65064L45.2232 9.32008C45.2933 9.72853 44.8645 10.04 44.4977 9.84717L42.1004 8.58683C41.9548 8.51025 41.7807 8.51025 41.6351 8.58683L39.2378 9.84717C38.871 10.04 38.4422 9.72853 38.5123 9.32008L38.9701 6.65064C38.998 6.48845 38.9442 6.32295 38.8264 6.20808L36.8869 4.31757C36.5901 4.0283 36.7539 3.52432 37.164 3.46472L39.8443 3.07526C40.0071 3.05159 40.1479 2.94931 40.2207 2.80174L41.4194 0.373003ZM53.4194 0.373003C53.6028 0.00138056 54.1327 0.00137994 54.3161 0.373003L55.5148 2.80174C55.5876 2.94931 55.7284 3.05159 55.8912 3.07526L58.5715 3.46472C58.9816 3.52432 59.1454 4.0283 58.8486 4.31757L56.9092 6.20808C56.7913 6.32295 56.7375 6.48845 56.7654 6.65064L57.2232 9.32008C57.2933 9.72853 56.8645 10.04 56.4977 9.84717L54.1004 8.58683C53.9548 8.51025 53.7807 8.51025 53.6351 8.58683L51.2378 9.84717C50.871 10.04 50.4422 9.72853 50.5123 9.32008L50.9701 6.65064C50.998 6.48845 50.9442 6.32295 50.8264 6.20808L48.8869 4.31757C48.5901 4.0283 48.7539 3.52432 49.164 3.46472L51.8443 3.07526C52.0071 3.05159 52.1479 2.94931 52.2207 2.80174L53.4194 0.373003Z" fill="#FFC700"/>
<path d="M5.41939 0.373003C5.60279 0.00138056 6.13272 0.00137994 6.31612 0.373003L7.51478 2.80174C7.58761 2.94931 7.72839 3.05159 7.89125 3.07526L10.5715 3.46472C10.9816 3.52432 11.1454 4.0283 10.8486 4.31757L8.90916 6.20808C8.79132 6.32295 8.73754 6.48845 8.76536 6.65064L9.22321 9.32008C9.29326 9.72853 8.86454 10.04 8.49773 9.84717L6.10043 8.58683C5.95476 8.51025 5.78075 8.51025 5.63509 8.58683L3.23778 9.84717C2.87097 10.04 2.44225 9.72853 2.51231 9.32008L2.97015 6.65064C2.99797 6.48845 2.94419 6.32295 2.82635 6.20808L0.886892 4.31757C0.590134 4.0283 0.753888 3.52432 1.164 3.46472L3.84427 3.07526C4.00712 3.05159 4.1479 2.94931 4.22074 2.80174L5.41939 0.373003ZM17.4194 0.373003C17.6028 0.00138056 18.1327 0.00137994 18.3161 0.373003L19.5148 2.80174C19.5876 2.94931 19.7284 3.05159 19.8912 3.07526L22.5715 3.46472C22.9816 3.52432 23.1454 4.0283 22.8486 4.31757L20.9092 6.20808C20.7913 6.32295 20.7375 6.48845 20.7654 6.65064L21.2232 9.32008C21.2933 9.72853 20.8645 10.04 20.4977 9.84717L18.1004 8.58683C17.9548 8.51025 17.7807 8.51025 17.6351 8.58683L15.2378 9.84717C14.871 10.04 14.4423 9.72853 14.5123 9.32008L14.9701 6.65064C14.998 6.48845 14.9442 6.32295 14.8264 6.20808L12.8869 4.31757C12.5901 4.0283 12.7539 3.52432 13.164 3.46472L15.8443 3.07526C16.0071 3.05159 16.1479 2.94931 16.2207 2.80174L17.4194 0.373003ZM29.4194 0.373003C29.6028 0.00138056 30.1327 0.00137994 30.3161 0.373003L31.5148 2.80174C31.5876 2.94931 31.7284 3.05159 31.8912 3.07526L34.5715 3.46472C34.9816 3.52432 35.1454 4.0283 34.8486 4.31757L32.9092 6.20808C32.7913 6.32295 32.7375 6.48845 32.7654 6.65064L33.2232 9.32008C33.2933 9.72853 32.8645 10.04 32.4977 9.84717L30.1004 8.58683C29.9548 8.51025 29.7807 8.51025 29.6351 8.58683L27.2378 9.84717C26.871 10.04 26.4423 9.72853 26.5123 9.32008L26.9701 6.65064C26.998 6.48845 26.9442 6.32295 26.8264 6.20808L24.8869 4.31757C24.5901 4.0283 24.7539 3.52432 25.164 3.46472L27.8443 3.07526C28.0071 3.05159 28.1479 2.94931 28.2207 2.80174L29.4194 0.373003ZM41.4194 0.373003C41.6028 0.00138056 42.1327 0.00137994 42.3161 0.373003L43.5148 2.80174C43.5876 2.94931 43.7284 3.05159 43.8912 3.07526L46.5715 3.46472C46.9816 3.52432 47.1454 4.0283 46.8486 4.31757L44.9092 6.20808C44.7913 6.32295 44.7375 6.48845 44.7654 6.65064L45.2232 9.32008C45.2933 9.72853 44.8645 10.04 44.4977 9.84717L42.1004 8.58683C41.9548 8.51025 41.7807 8.51025 41.6351 8.58683L39.2378 9.84717C38.871 10.04 38.4422 9.72853 38.5123 9.32008L38.9701 6.65064C38.998 6.48845 38.9442 6.32295 38.8264 6.20808L36.8869 4.31757C36.5901 4.0283 36.7539 3.52432 37.164 3.46472L39.8443 3.07526C40.0071 3.05159 40.1479 2.94931 40.2207 2.80174L41.4194 0.373003ZM53.4194 0.373003C53.6028 0.00138056 54.1327 0.00137994 54.3161 0.373003L55.5148 2.80174C55.5876 2.94931 55.7284 3.05159 55.8912 3.07526L58.5715 3.46472C58.9816 3.52432 59.1454 4.0283 58.8486 4.31757L56.9092 6.20808C56.7913 6.32295 56.7375 6.48845 56.7654 6.65064L57.2232 9.32008C57.2933 9.72853 56.8645 10.04 56.4977 9.84717L54.1004 8.58683C53.9548 8.51025 53.7807 8.51025 53.6351 8.58683L51.2378 9.84717C50.871 10.04 50.4422 9.72853 50.5123 9.32008L50.9701 6.65064C50.998 6.48845 50.9442 6.32295 50.8264 6.20808L48.8869 4.31757C48.5901 4.0283 48.7539 3.52432 49.164 3.46472L51.8443 3.07526C52.0071 3.05159 52.1479 2.94931 52.2207 2.80174L53.4194 0.373003Z" fill="#FFC700"/>
<path d="M5.41939 0.373003C5.60279 0.00138056 6.13272 0.00137994 6.31612 0.373003L7.51478 2.80174C7.58761 2.94931 7.72839 3.05159 7.89125 3.07526L10.5715 3.46472C10.9816 3.52432 11.1454 4.0283 10.8486 4.31757L8.90916 6.20808C8.79132 6.32295 8.73754 6.48845 8.76536 6.65064L9.22321 9.32008C9.29326 9.72853 8.86454 10.04 8.49773 9.84717L6.10043 8.58683C5.95476 8.51025 5.78075 8.51025 5.63509 8.58683L3.23778 9.84717C2.87097 10.04 2.44225 9.72853 2.51231 9.32008L2.97015 6.65064C2.99797 6.48845 2.94419 6.32295 2.82635 6.20808L0.886892 4.31757C0.590134 4.0283 0.753888 3.52432 1.164 3.46472L3.84427 3.07526C4.00712 3.05159 4.1479 2.94931 4.22074 2.80174L5.41939 0.373003ZM17.4194 0.373003C17.6028 0.00138056 18.1327 0.00137994 18.3161 0.373003L19.5148 2.80174C19.5876 2.94931 19.7284 3.05159 19.8912 3.07526L22.5715 3.46472C22.9816 3.52432 23.1454 4.0283 22.8486 4.31757L20.9092 6.20808C20.7913 6.32295 20.7375 6.48845 20.7654 6.65064L21.2232 9.32008C21.2933 9.72853 20.8645 10.04 20.4977 9.84717L18.1004 8.58683C17.9548 8.51025 17.7807 8.51025 17.6351 8.58683L15.2378 9.84717C14.871 10.04 14.4423 9.72853 14.5123 9.32008L14.9701 6.65064C14.998 6.48845 14.9442 6.32295 14.8264 6.20808L12.8869 4.31757C12.5901 4.0283 12.7539 3.52432 13.164 3.46472L15.8443 3.07526C16.0071 3.05159 16.1479 2.94931 16.2207 2.80174L17.4194 0.373003ZM29.4194 0.373003C29.6028 0.00138056 30.1327 0.00137994 30.3161 0.373003L31.5148 2.80174C31.5876 2.94931 31.7284 3.05159 31.8912 3.07526L34.5715 3.46472C34.9816 3.52432 35.1454 4.0283 34.8486 4.31757L32.9092 6.20808C32.7913 6.32295 32.7375 6.48845 32.7654 6.65064L33.2232 9.32008C33.2933 9.72853 32.8645 10.04 32.4977 9.84717L30.1004 8.58683C29.9548 8.51025 29.7807 8.51025 29.6351 8.58683L27.2378 9.84717C26.871 10.04 26.4423 9.72853 26.5123 9.32008L26.9701 6.65064C26.998 6.48845 26.9442 6.32295 26.8264 6.20808L24.8869 4.31757C24.5901 4.0283 24.7539 3.52432 25.164 3.46472L27.8443 3.07526C28.0071 3.05159 28.1479 2.94931 28.2207 2.80174L29.4194 0.373003ZM41.4194 0.373003C41.6028 0.00138056 42.1327 0.00137994 42.3161 0.373003L43.5148 2.80174C43.5876 2.94931 43.7284 3.05159 43.8912 3.07526L46.5715 3.46472C46.9816 3.52432 47.1454 4.0283 46.8486 4.31757L44.9092 6.20808C44.7913 6.32295 44.7375 6.48845 44.7654 6.65064L45.2232 9.32008C45.2933 9.72853 44.8645 10.04 44.4977 9.84717L42.1004 8.58683C41.9548 8.51025 41.7807 8.51025 41.6351 8.58683L39.2378 9.84717C38.871 10.04 38.4422 9.72853 38.5123 9.32008L38.9701 6.65064C38.998 6.48845 38.9442 6.32295 38.8264 6.20808L36.8869 4.31757C36.5901 4.0283 36.7539 3.52432 37.164 3.46472L39.8443 3.07526C40.0071 3.05159 40.1479 2.94931 40.2207 2.80174L41.4194 0.373003ZM53.4194 0.373003C53.6028 0.00138056 54.1327 0.00137994 54.3161 0.373003L55.5148 2.80174C55.5876 2.94931 55.7284 3.05159 55.8912 3.07526L58.5715 3.46472C58.9816 3.52432 59.1454 4.0283 58.8486 4.31757L56.9092 6.20808C56.7913 6.32295 56.7375 6.48845 56.7654 6.65064L57.2232 9.32008C57.2933 9.72853 56.8645 10.04 56.4977 9.84717L54.1004 8.58683C53.9548 8.51025 53.7807 8.51025 53.6351 8.58683L51.2378 9.84717C50.871 10.04 50.4422 9.72853 50.5123 9.32008L50.9701 6.65064C50.998 6.48845 50.9442 6.32295 50.8264 6.20808L48.8869 4.31757C48.5901 4.0283 48.7539 3.52432 49.164 3.46472L51.8443 3.07526C52.0071 3.05159 52.1479 2.94931 52.2207 2.80174L53.4194 0.373003Z" fill="#FFC700"/>
<path d="M5.41939 0.373003C5.60279 0.00138056 6.13272 0.00137994 6.31612 0.373003L7.51478 2.80174C7.58761 2.94931 7.72839 3.05159 7.89125 3.07526L10.5715 3.46472C10.9816 3.52432 11.1454 4.0283 10.8486 4.31757L8.90916 6.20808C8.79132 6.32295 8.73754 6.48845 8.76536 6.65064L9.22321 9.32008C9.29326 9.72853 8.86454 10.04 8.49773 9.84717L6.10043 8.58683C5.95476 8.51025 5.78075 8.51025 5.63509 8.58683L3.23778 9.84717C2.87097 10.04 2.44225 9.72853 2.51231 9.32008L2.97015 6.65064C2.99797 6.48845 2.94419 6.32295 2.82635 6.20808L0.886892 4.31757C0.590134 4.0283 0.753888 3.52432 1.164 3.46472L3.84427 3.07526C4.00712 3.05159 4.1479 2.94931 4.22074 2.80174L5.41939 0.373003ZM17.4194 0.373003C17.6028 0.00138056 18.1327 0.00137994 18.3161 0.373003L19.5148 2.80174C19.5876 2.94931 19.7284 3.05159 19.8912 3.07526L22.5715 3.46472C22.9816 3.52432 23.1454 4.0283 22.8486 4.31757L20.9092 6.20808C20.7913 6.32295 20.7375 6.48845 20.7654 6.65064L21.2232 9.32008C21.2933 9.72853 20.8645 10.04 20.4977 9.84717L18.1004 8.58683C17.9548 8.51025 17.7807 8.51025 17.6351 8.58683L15.2378 9.84717C14.871 10.04 14.4423 9.72853 14.5123 9.32008L14.9701 6.65064C14.998 6.48845 14.9442 6.32295 14.8264 6.20808L12.8869 4.31757C12.5901 4.0283 12.7539 3.52432 13.164 3.46472L15.8443 3.07526C16.0071 3.05159 16.1479 2.94931 16.2207 2.80174L17.4194 0.373003ZM29.4194 0.373003C29.6028 0.00138056 30.1327 0.00137994 30.3161 0.373003L31.5148 2.80174C31.5876 2.94931 31.7284 3.05159 31.8912 3.07526L34.5715 3.46472C34.9816 3.52432 35.1454 4.0283 34.8486 4.31757L32.9092 6.20808C32.7913 6.32295 32.7375 6.48845 32.7654 6.65064L33.2232 9.32008C33.2933 9.72853 32.8645 10.04 32.4977 9.84717L30.1004 8.58683C29.9548 8.51025 29.7807 8.51025 29.6351 8.58683L27.2378 9.84717C26.871 10.04 26.4423 9.72853 26.5123 9.32008L26.9701 6.65064C26.998 6.48845 26.9442 6.32295 26.8264 6.20808L24.8869 4.31757C24.5901 4.0283 24.7539 3.52432 25.164 3.46472L27.8443 3.07526C28.0071 3.05159 28.1479 2.94931 28.2207 2.80174L29.4194 0.373003ZM41.4194 0.373003C41.6028 0.00138056 42.1327 0.00137994 42.3161 0.373003L43.5148 2.80174C43.5876 2.94931 43.7284 3.05159 43.8912 3.07526L46.5715 3.46472C46.9816 3.52432 47.1454 4.0283 46.8486 4.31757L44.9092 6.20808C44.7913 6.32295 44.7375 6.48845 44.7654 6.65064L45.2232 9.32008C45.2933 9.72853 44.8645 10.04 44.4977 9.84717L42.1004 8.58683C41.9548 8.51025 41.7807 8.51025 41.6351 8.58683L39.2378 9.84717C38.871 10.04 38.4422 9.72853 38.5123 9.32008L38.9701 6.65064C38.998 6.48845 38.9442 6.32295 38.8264 6.20808L36.8869 4.31757C36.5901 4.0283 36.7539 3.52432 37.164 3.46472L39.8443 3.07526C40.0071 3.05159 40.1479 2.94931 40.2207 2.80174L41.4194 0.373003ZM53.4194 0.373003C53.6028 0.00138056 54.1327 0.00137994 54.3161 0.373003L55.5148 2.80174C55.5876 2.94931 55.7284 3.05159 55.8912 3.07526L58.5715 3.46472C58.9816 3.52432 59.1454 4.0283 58.8486 4.31757L56.9092 6.20808C56.7913 6.32295 56.7375 6.48845 56.7654 6.65064L57.2232 9.32008C57.2933 9.72853 56.8645 10.04 56.4977 9.84717L54.1004 8.58683C53.9548 8.51025 53.7807 8.51025 53.6351 8.58683L51.2378 9.84717C50.871 10.04 50.4422 9.72853 50.5123 9.32008L50.9701 6.65064C50.998 6.48845 50.9442 6.32295 50.8264 6.20808L48.8869 4.31757C48.5901 4.0283 48.7539 3.52432 49.164 3.46472L51.8443 3.07526C52.0071 3.05159 52.1479 2.94931 52.2207 2.80174L53.4194 0.373003Z" fill="#FFC700"/>
<path d="M5.41939 0.373003C5.60279 0.00138056 6.13272 0.00137994 6.31612 0.373003L7.51478 2.80174C7.58761 2.94931 7.72839 3.05159 7.89125 3.07526L10.5715 3.46472C10.9816 3.52432 11.1454 4.0283 10.8486 4.31757L8.90916 6.20808C8.79132 6.32295 8.73754 6.48845 8.76536 6.65064L9.22321 9.32008C9.29326 9.72853 8.86454 10.04 8.49773 9.84717L6.10043 8.58683C5.95476 8.51025 5.78075 8.51025 5.63509 8.58683L3.23778 9.84717C2.87097 10.04 2.44225 9.72853 2.51231 9.32008L2.97015 6.65064C2.99797 6.48845 2.94419 6.32295 2.82635 6.20808L0.886892 4.31757C0.590134 4.0283 0.753888 3.52432 1.164 3.46472L3.84427 3.07526C4.00712 3.05159 4.1479 2.94931 4.22074 2.80174L5.41939 0.373003ZM17.4194 0.373003C17.6028 0.00138056 18.1327 0.00137994 18.3161 0.373003L19.5148 2.80174C19.5876 2.94931 19.7284 3.05159 19.8912 3.07526L22.5715 3.46472C22.9816 3.52432 23.1454 4.0283 22.8486 4.31757L20.9092 6.20808C20.7913 6.32295 20.7375 6.48845 20.7654 6.65064L21.2232 9.32008C21.2933 9.72853 20.8645 10.04 20.4977 9.84717L18.1004 8.58683C17.9548 8.51025 17.7807 8.51025 17.6351 8.58683L15.2378 9.84717C14.871 10.04 14.4423 9.72853 14.5123 9.32008L14.9701 6.65064C14.998 6.48845 14.9442 6.32295 14.8264 6.20808L12.8869 4.31757C12.5901 4.0283 12.7539 3.52432 13.164 3.46472L15.8443 3.07526C16.0071 3.05159 16.1479 2.94931 16.2207 2.80174L17.4194 0.373003ZM29.4194 0.373003C29.6028 0.00138056 30.1327 0.00137994 30.3161 0.373003L31.5148 2.80174C31.5876 2.94931 31.7284 3.05159 31.8912 3.07526L34.5715 3.46472C34.9816 3.52432 35.1454 4.0283 34.8486 4.31757L32.9092 6.20808C32.7913 6.32295 32.7375 6.48845 32.7654 6.65064L33.2232 9.32008C33.2933 9.72853 32.8645 10.04 32.4977 9.84717L30.1004 8.58683C29.9548 8.51025 29.7807 8.51025 29.6351 8.58683L27.2378 9.84717C26.871 10.04 26.4423 9.72853 26.5123 9.32008L26.9701 6.65064C26.998 6.48845 26.9442 6.32295 26.8264 6.20808L24.8869 4.31757C24.5901 4.0283 24.7539 3.52432 25.164 3.46472L27.8443 3.07526C28.0071 3.05159 28.1479 2.94931 28.2207 2.80174L29.4194 0.373003ZM41.4194 0.373003C41.6028 0.00138056 42.1327 0.00137994 42.3161 0.373003L43.5148 2.80174C43.5876 2.94931 43.7284 3.05159 43.8912 3.07526L46.5715 3.46472C46.9816 3.52432 47.1454 4.0283 46.8486 4.31757L44.9092 6.20808C44.7913 6.32295 44.7375 6.48845 44.7654 6.65064L45.2232 9.32008C45.2933 9.72853 44.8645 10.04 44.4977 9.84717L42.1004 8.58683C41.9548 8.51025 41.7807 8.51025 41.6351 8.58683L39.2378 9.84717C38.871 10.04 38.4422 9.72853 38.5123 9.32008L38.9701 6.65064C38.998 6.48845 38.9442 6.32295 38.8264 6.20808L36.8869 4.31757C36.5901 4.0283 36.7539 3.52432 37.164 3.46472L39.8443 3.07526C40.0071 3.05159 40.1479 2.94931 40.2207 2.80174L41.4194 0.373003ZM53.4194 0.373003C53.6028 0.00138056 54.1327 0.00137994 54.3161 0.373003L55.5148 2.80174C55.5876 2.94931 55.7284 3.05159 55.8912 3.07526L58.5715 3.46472C58.9816 3.52432 59.1454 4.0283 58.8486 4.31757L56.9092 6.20808C56.7913 6.32295 56.7375 6.48845 56.7654 6.65064L57.2232 9.32008C57.2933 9.72853 56.8645 10.04 56.4977 9.84717L54.1004 8.58683C53.9548 8.51025 53.7807 8.51025 53.6351 8.58683L51.2378 9.84717C50.871 10.04 50.4422 9.72853 50.5123 9.32008L50.9701 6.65064C50.998 6.48845 50.9442 6.32295 50.8264 6.20808L48.8869 4.31757C48.5901 4.0283 48.7539 3.52432 49.164 3.46472L51.8443 3.07526C52.0071 3.05159 52.1479 2.94931 52.2207 2.80174L53.4194 0.373003Z" fill="#FFC700"/>
</svg>
